<svg width="200" height="67" viewBox="0 0 200 67" fill="none" xmlns="http://www.w3.org/2000/svg">
<path d="M0 10.5937C0 5.0709 4.47715 0.59375 10 0.59375H200V66.5938H10C4.47716 66.5938 0 62.1166 0 56.5938V10.5937Z" fill="url(#paint0_linear_1785_3278)"/>
<path d="M84.5195 23.2158C84.7289 22.6574 84.8615 22.0502 85.1547 21.5407C85.9923 20.1098 87.2905 19.342 88.9517 19.3351C92.9092 19.3071 96.8597 19.3211 100.817 19.3281C101.739 19.3281 102.402 19.9772 102.388 20.8427C102.374 21.6872 101.718 22.3084 100.81 22.3084C96.9365 22.3084 93.0627 22.3084 89.189 22.3084C88.0862 22.3084 87.5069 22.8877 87.5069 23.9766C87.5069 30.8027 87.5069 37.6359 87.5069 44.4621C87.5069 45.5439 88.0792 46.1232 89.161 46.1232C96.0012 46.1232 102.841 46.1232 109.681 46.1232C110.749 46.1232 111.329 45.523 111.329 44.4481C111.329 40.5604 111.329 36.6797 111.329 32.792C111.329 31.7031 112.306 30.9842 113.297 31.3192C113.925 31.5286 114.302 32.094 114.309 32.8338C114.316 34.1739 114.309 35.5071 114.309 36.8472C114.309 39.325 114.309 41.8028 114.309 44.2806C114.309 46.7305 113.164 48.273 110.826 48.9989C110.805 49.0059 110.791 49.0268 110.77 49.0408C103.183 49.0408 95.6033 49.0408 88.0164 49.0408C87.9326 49.0059 87.8558 48.964 87.7651 48.9361C86.5855 48.5801 85.6642 47.8751 85.0919 46.7933C84.8336 46.2977 84.708 45.7324 84.5195 45.2019C84.5195 37.8732 84.5195 30.5445 84.5195 23.2158Z" fill="white"/>
<path d="M110.231 18.1484C111.989 19.9073 113.727 21.6453 115.479 23.3972C115.423 23.46 115.347 23.5438 115.263 23.6205C111.487 27.4035 107.718 31.1796 103.935 34.9416C103.718 35.158 103.404 35.3325 103.104 35.3953C101.478 35.7443 99.8517 36.0584 98.2185 36.3795C97.5484 36.5121 97.1087 36.0933 97.2343 35.4302C97.5693 33.7342 97.9113 32.0381 98.2673 30.342C98.3022 30.1605 98.4069 29.9651 98.5325 29.8325C102.406 25.9448 106.294 22.0641 110.175 18.1833C110.196 18.1694 110.217 18.1554 110.231 18.1484Z" fill="white"/>
<defs>
<linearGradient id="paint0_linear_1785_3278" x1="7.45058e-07" y1="33.5938" x2="200" y2="33.5938" gradientUnits="userSpaceOnUse">
<stop stop-color="#4D80F0"/>
<stop offset="1" stop-color="#4EC1EC"/>
</linearGradient>
</defs>
</svg>
