<svg width="54" height="71" viewBox="0 0 54 71" fill="none" xmlns="http://www.w3.org/2000/svg">
<path d="M15.0454 70.8218C13.5933 70.4616 12.0735 70.2666 10.701 69.7094C5.05961 67.4249 1.61232 63.234 0.725138 57.2063C-0.118283 51.4632 1.81124 46.6176 6.19942 42.8067C6.40934 42.6428 6.57651 42.4305 6.68665 42.1879C6.7968 41.9454 6.84666 41.6797 6.83199 41.4137C6.81475 28.1882 6.8101 14.9634 6.81806 1.73925V0.803955H27.1935V1.69547C27.1935 15.3097 27.1935 28.9226 27.1935 42.5341C27.1828 42.7685 27.2215 43.0025 27.3072 43.2209C27.3929 43.4393 27.5236 43.6372 27.6908 43.8017C31.9775 48.3489 33.3659 53.7059 31.5279 59.646C29.7138 65.5066 25.5603 69.0826 19.5927 70.5054C18.996 70.6467 18.3873 70.7243 17.7845 70.8318L15.0454 70.8218ZM10.6075 4.59887V5.61974C10.6075 18.2297 10.6115 30.8389 10.6194 43.4475C10.6194 44.0326 10.4663 44.3768 9.95702 44.7171C5.12525 47.9409 3.11616 53.7079 4.98402 58.8739C7.01101 64.4797 12.2963 67.6657 18.2401 66.8637C23.595 66.1414 28.0846 61.3753 28.4387 56.0044C28.7212 51.7239 27.2054 48.1956 23.9033 45.4574C23.7266 45.3246 23.586 45.1495 23.4946 44.9481C23.4032 44.7468 23.3638 44.5257 23.3801 44.3052C23.3921 31.3543 23.3954 18.4028 23.3901 5.45059V4.59887H10.6075Z" fill="#4CD8E0"/>
<path d="M47.7041 14.8077V21.8403H44.0559V14.8754H36.668V11.1661H44.0041V4.625H47.6842V11.1283H53.8785V14.8077H47.7041Z" fill="#4CD8E0"/>
<path d="M53.8786 36.9243V40.5049H36.6641V36.9243H53.8786Z" fill="#4CD8E0"/>
<path d="M13.4402 16.6924H20.6808V17.5899C20.6808 26.9349 20.6762 36.2812 20.6669 45.6288C20.6669 46.2258 20.83 46.5502 21.3631 46.8527C23.201 47.9182 24.6258 49.5728 25.407 51.549C26.1882 53.5251 26.2801 55.7071 25.6678 57.7419C24.4205 61.899 20.3705 64.7487 16.0699 64.494C14.1206 64.4002 12.2478 63.7065 10.7076 62.5076C9.16743 61.3087 8.03495 59.6631 7.46505 57.7959C6.89514 55.9287 6.91561 53.931 7.52367 52.0759C8.13173 50.2208 9.29769 48.5988 10.8621 47.4318C11.4246 47.0055 12.0397 46.6536 12.6922 46.385C13.2651 46.1522 13.4581 45.8676 13.4561 45.2368C13.4322 36.0298 13.4269 26.8208 13.4402 17.6098V16.6924Z" fill="#4CD8E0"/>
</svg>
