<svg width="89" height="71" viewBox="0 0 89 71" fill="none" xmlns="http://www.w3.org/2000/svg">
<path d="M53.1663 70.5901H35.152C32.8539 70.5901 30.9821 68.7175 30.9821 66.4184V48.3968C30.9821 46.0977 32.8539 44.2251 35.152 44.2251H53.1663C55.4644 44.2251 57.3362 46.0977 57.3362 48.3968V66.4184C57.3362 68.7175 55.4644 70.5901 53.1663 70.5901Z" fill="#4CD8E0"/>
<path d="M83.9133 26.9268H65.8991C63.601 26.9268 61.7291 25.0541 61.7291 22.7551V4.73344C61.7291 2.43439 63.601 0.561768 65.8991 0.561768H83.9133C86.2115 0.561768 88.0833 2.43439 88.0833 4.73344V22.7551C88.0833 25.0727 86.2115 26.9268 83.9133 26.9268Z" fill="#4CD8E0"/>
<path d="M22.7158 26.9268H4.70159C2.40347 26.9268 0.531616 25.0541 0.531616 22.7551V4.73344C0.531616 2.43439 2.40347 0.561768 4.70159 0.561768H22.7158C25.0139 0.561768 26.8858 2.43439 26.8858 4.73344V22.7551C26.8858 25.0727 25.0139 26.9268 22.7158 26.9268Z" fill="#4CD8E0"/>
<path d="M57.3367 9.90674H24.9778V18.4167H57.3367V9.90674Z" fill="#4CD8E0"/>
<path d="M34.4664 39.6086C34.9112 39.6086 35.3375 39.6455 35.7452 39.7383L24.0877 19.5291L16.7301 23.7748L28.406 44.0027C29.24 41.4626 31.6308 39.6086 34.4664 39.6086Z" fill="#4CD8E0"/>
</svg>
