<svg width="823" height="1201" viewBox="0 0 823 1201" fill="none" xmlns="http://www.w3.org/2000/svg">
<path d="M0 0.283203H822.184V1200.28H0V0.283203Z" fill="url(#paint0_linear_1206_3681)"/>
<path opacity="0.1" d="M219.531 1207.65H0.96875V988.922C121.464 989.249 219.203 1086.99 219.531 1207.65Z" fill="white"/>
<g opacity="0.1">
<path opacity="0.1" d="M208.889 999.562C153.389 944.062 79.3888 913.283 0.804688 913.119V935.385C150.769 935.712 272.575 1057.52 272.902 1207.48H295.168C295.168 1129.06 264.552 1055.06 208.889 999.562Z" fill="white"/>
</g>
<path opacity="0.1" d="M591.238 106.498L616.451 200.471L685.212 131.547L591.238 106.498Z" fill="white"/>
<path opacity="0.1" d="M563.898 79.1582L589.111 173.132L658.036 104.207L563.898 79.1582Z" stroke="white" stroke-width="5" stroke-miterlimit="10"/>
<g clip-path="url(#clip0_1206_3681)">
<circle cx="410.091" cy="520.81" r="149.474" fill="white"/>
<path d="M409.841 397.209V618.959C373.016 618.959 362.341 618.909 356.841 618.884C350.491 618.834 368.541 598.959 349.691 579.259C345.941 575.334 337.441 575.559 328.816 575.884C320.516 576.209 312.216 576.534 308.391 572.934C302.666 567.559 304.591 558.734 304.591 554.784C304.591 550.859 303.241 552.209 301.116 549.534C298.991 546.859 299.941 543.409 299.941 543.409C299.941 543.409 297.016 542.134 296.291 538.059C295.516 533.659 299.466 533.359 299.316 528.959C299.166 524.559 288.941 522.834 288.941 518.109C288.941 510.709 307.266 502.584 307.316 493.459C307.516 456.134 314.166 434.684 323.216 421.934C324.166 420.584 325.166 419.334 326.166 418.159C338.141 404.309 353.191 403.009 363.241 399.884C373.066 398.034 390.966 396.884 409.841 397.209Z" fill="url(#paint1_linear_1206_3681)"/>
<path d="M520.367 528.984C520.217 533.384 524.142 533.659 523.392 538.084C522.692 542.159 519.742 543.434 519.742 543.434C519.742 543.434 520.692 546.884 518.567 549.559C516.442 552.234 515.092 550.884 515.092 554.809C515.092 558.734 517.017 567.559 511.292 572.959C507.467 576.559 499.167 576.234 490.892 575.909C482.267 575.559 473.792 575.359 470.017 579.284C451.142 598.984 469.217 618.859 462.867 618.909C457.367 618.959 446.692 618.984 409.867 618.984V397.234C428.742 396.909 446.642 398.059 456.442 399.934C466.492 403.059 481.567 404.359 493.542 418.209C494.542 419.359 495.517 420.609 496.467 421.959C505.517 434.709 512.167 456.159 512.367 493.509C512.417 502.634 530.742 510.759 530.742 518.159C530.717 522.884 520.517 524.584 520.367 528.984Z" fill="url(#paint2_linear_1206_3681)"/>
<path d="M410.067 469.834L409.842 505.084C386.842 523.334 367.642 513.184 367.642 513.184C338.142 499.059 349.517 491.809 349.517 491.809C371.892 494.934 388.767 482.434 388.767 482.434L387.642 481.184C342.642 501.934 339.892 478.434 339.892 478.434C338.142 462.059 355.392 468.834 355.392 468.834L355.767 467.309C334.892 461.934 334.392 451.184 334.392 451.184C331.142 434.184 343.767 432.184 343.767 432.184C350.142 439.309 359.142 441.059 359.142 441.059C356.217 452.509 369.767 460.684 369.767 460.684L371.142 459.059C357.767 451.059 361.142 441.934 361.142 441.934C367.142 444.684 376.042 443.684 376.042 443.684V441.809C362.642 443.684 348.017 433.434 348.017 433.434C333.867 421.434 347.517 407.809 347.517 407.809C401.817 435.009 410.067 469.834 410.067 469.834Z" fill="url(#paint3_linear_1206_3681)"/>
<path d="M409.893 416.133L410.068 469.808C410.068 469.808 401.818 434.983 347.543 407.783C347.543 407.783 347.568 407.783 347.593 407.758C348.568 407.083 367.243 394.558 387.143 399.408C387.568 399.508 387.993 399.608 388.393 399.733C388.843 399.858 389.293 399.983 389.718 400.133C389.943 400.208 390.193 400.283 390.418 400.358C390.593 400.408 390.768 400.483 390.968 400.533C391.118 400.583 391.268 400.658 391.418 400.708C391.618 400.783 391.818 400.858 392.018 400.933C403.568 405.358 409.843 414.508 409.843 414.508C409.843 414.558 409.868 416.133 409.893 416.133Z" fill="url(#paint4_linear_1206_3681)"/>
<path d="M410.067 469.834C410.067 469.834 418.317 435.009 472.592 407.809C472.592 407.809 472.567 407.809 472.542 407.784C471.567 407.109 452.892 394.584 432.992 399.434C432.567 399.534 432.142 399.634 431.742 399.759C431.292 399.884 430.842 400.009 430.417 400.159C430.192 400.234 429.942 400.309 429.717 400.384C429.542 400.434 429.367 400.509 429.167 400.559C429.017 400.609 428.867 400.684 428.717 400.734C428.517 400.809 428.317 400.884 428.117 400.959C416.567 405.384 409.867 414.509 409.867 414.534C409.842 414.559 410.067 469.834 410.067 469.834Z" fill="url(#paint5_linear_1206_3681)"/>
<path d="M410.068 469.834L410.043 504.934C433.043 523.184 452.443 513.209 452.443 513.209C481.943 499.084 470.568 491.834 470.568 491.834C448.193 494.959 431.318 482.459 431.318 482.459L432.443 481.209C477.443 501.959 480.193 478.459 480.193 478.459C481.943 462.084 464.693 468.859 464.693 468.859L464.318 467.334C485.193 461.959 485.693 451.209 485.693 451.209C488.943 434.209 476.318 432.209 476.318 432.209C469.943 439.334 460.943 441.084 460.943 441.084C463.868 452.534 450.318 460.709 450.318 460.709L448.943 459.084C462.318 451.084 458.943 441.959 458.943 441.959C452.943 444.709 444.043 443.709 444.043 443.709V441.834C457.443 443.709 472.068 433.459 472.068 433.459C486.218 421.459 472.568 407.834 472.568 407.834C418.293 435.009 410.068 469.834 410.068 469.834Z" fill="url(#paint6_linear_1206_3681)"/>
<path d="M409.78 618.959C409.78 618.959 401.105 562.484 361.53 543.709C361.53 543.709 310.58 523.284 313.18 458.784C313.18 458.784 313.305 455.109 314.105 449.684C314.105 449.659 314.105 449.634 314.13 449.609C316.005 440.034 317.705 433.984 319.455 429.534C319.505 429.384 319.58 429.259 319.63 429.109C319.68 428.959 319.755 428.809 319.805 428.684C319.83 428.609 319.855 428.559 319.88 428.484C320.305 427.459 320.78 426.459 321.28 425.434C321.38 425.259 321.455 425.059 321.555 424.884C322.08 423.859 322.63 422.909 323.18 421.959C324.13 420.609 325.13 419.359 326.13 418.184C326.83 417.809 327.455 417.609 328.03 417.509C328.105 417.484 328.155 417.484 328.23 417.484C328.63 417.459 329.055 417.484 329.48 417.584C329.58 417.609 329.68 417.659 329.78 417.684C329.83 417.709 329.88 417.734 329.955 417.759C329.98 417.759 330.005 417.784 330.03 417.809C330.08 417.834 330.13 417.859 330.18 417.884C330.23 417.909 330.305 417.959 330.355 417.984C331.93 419.034 332.705 421.409 333.055 423.259C333.08 423.409 333.105 423.559 333.13 423.684C333.155 423.809 333.18 423.934 333.18 424.034C333.205 424.184 333.23 424.359 333.255 424.534C333.305 424.909 333.355 425.309 333.38 425.734C333.38 425.759 333.38 425.759 333.38 425.784C333.38 425.784 322.855 464.409 358.08 499.934C358.08 499.934 358.08 499.934 358.105 499.934C358.305 499.959 359.53 500.109 358.905 499.059C358.905 499.059 356.155 494.609 352.755 488.334C347.755 479.109 341.38 465.984 340.405 457.484C340.405 457.484 340.18 449.209 347.43 452.984C347.43 452.984 377.73 488.734 379.355 489.984C379.355 489.984 398.93 495.984 406.555 515.109C408.33 519.559 409.655 524.684 409.73 530.634C410.005 545.309 409.78 598.609 409.78 618.959Z" fill="url(#paint7_linear_1206_3681)"/>
<path d="M458.116 543.709C418.541 562.509 409.866 618.959 409.866 618.959C409.866 598.609 409.666 545.309 409.866 530.659C409.941 524.709 411.266 519.559 413.041 515.134C420.666 496.009 440.241 490.009 440.241 490.009C441.891 488.759 472.166 453.009 472.166 453.009C479.416 449.259 479.191 457.509 479.191 457.509C478.216 466.009 471.841 479.134 466.841 488.359C463.441 494.634 460.691 499.084 460.691 499.084C460.041 500.134 461.291 500.009 461.491 499.959C461.516 499.959 461.516 499.959 461.516 499.959C496.766 464.434 486.216 425.809 486.216 425.809C486.216 425.784 486.216 425.784 486.216 425.759C486.241 425.334 486.291 424.959 486.341 424.559C486.366 424.384 486.391 424.234 486.416 424.059L486.466 423.709C486.491 423.559 486.516 423.434 486.541 423.284C486.916 421.434 487.666 419.059 489.241 418.009C489.291 417.959 489.366 417.934 489.416 417.909C489.466 417.884 489.516 417.859 489.566 417.834C489.591 417.809 489.616 417.809 489.641 417.784C489.691 417.759 489.741 417.734 489.816 417.709C489.916 417.659 490.016 417.634 490.116 417.609C490.541 417.484 490.966 417.459 491.366 417.509C491.441 417.509 491.491 417.509 491.566 417.534C492.141 417.609 492.791 417.834 493.491 418.209C494.491 419.359 495.466 420.609 496.416 421.959C496.991 422.909 497.516 423.859 498.066 424.884C498.166 425.059 498.241 425.259 498.341 425.434C498.841 426.434 499.291 427.459 499.741 428.484C499.766 428.559 499.791 428.609 499.816 428.684C499.866 428.834 499.941 428.959 499.991 429.109C500.041 429.259 500.116 429.384 500.166 429.534C501.916 433.984 503.616 440.034 505.491 449.609C505.491 449.634 505.491 449.659 505.516 449.684C506.341 455.109 506.441 458.784 506.441 458.784C509.041 523.284 458.116 543.709 458.116 543.709Z" fill="url(#paint8_linear_1206_3681)"/>
<path d="M401.868 644.332C400.943 645.432 399.718 645.982 398.193 645.982C397.243 645.982 396.293 645.682 395.343 645.057C394.393 644.307 393.718 643.307 393.343 642.007C392.968 643.357 392.368 644.357 391.493 645.007C390.643 645.657 389.568 645.957 388.243 645.957C386.718 645.957 385.518 645.482 384.618 644.557C383.718 643.632 383.268 642.307 383.268 640.632C383.268 639.282 383.643 638.232 384.418 637.507C385.043 636.882 385.818 636.582 386.768 636.582C387.693 636.582 388.443 636.782 389.018 637.207C389.593 637.632 389.868 638.307 389.868 639.257C389.868 640.007 389.643 640.582 389.168 640.957C388.693 641.332 388.143 641.532 387.468 641.532L387.393 641.207C387.543 641.132 387.718 641.007 387.843 640.857C387.993 640.707 388.118 640.532 388.243 640.332C388.368 640.157 388.468 639.957 388.568 639.782C388.668 639.607 388.718 639.457 388.743 639.332C388.593 638.932 388.293 638.607 387.893 638.382C387.493 638.157 387.118 638.032 386.743 638.032C385.918 638.032 385.243 638.232 384.718 638.657C384.193 639.082 383.943 639.657 383.943 640.407C383.943 640.807 384.068 641.182 384.293 641.507C384.518 641.832 384.818 642.132 385.168 642.357C385.518 642.582 385.943 642.782 386.418 642.907C386.893 643.032 387.368 643.082 387.843 643.082C388.968 643.082 389.993 642.807 390.918 642.282C391.868 641.707 392.693 640.757 393.368 639.482C394.243 641.882 395.593 643.082 397.418 643.082C398.868 643.082 399.943 642.732 400.668 642.007C401.243 641.432 401.593 640.632 401.718 639.607L401.768 638.682C401.768 635.757 400.843 633.157 399.018 630.832C397.018 628.357 394.593 627.107 391.768 627.107H391.293C391.993 627.882 392.343 628.757 392.343 629.732C392.343 630.482 392.168 631.082 391.793 631.557C391.418 632.032 390.868 632.282 390.118 632.282C389.268 632.282 388.493 632.007 387.793 631.482C387.018 630.857 386.643 629.957 386.643 628.732C386.643 627.657 386.868 626.907 387.293 626.482C387.918 625.957 389.093 625.682 390.868 625.682C394.193 625.682 397.118 627.182 399.643 630.207C402.068 633.107 403.293 636.257 403.293 639.657C403.268 641.682 402.793 643.232 401.868 644.332ZM390.668 628.057C390.418 627.707 390.118 627.532 389.743 627.532C389.118 627.532 388.668 627.707 388.343 628.032C388.018 628.357 387.868 628.807 387.868 629.357C387.868 629.732 388.018 630.082 388.293 630.407C388.568 630.732 388.943 630.882 389.393 630.882C389.818 630.882 390.193 630.707 390.543 630.382C390.868 630.057 391.043 629.682 391.043 629.257C391.018 628.807 390.893 628.407 390.668 628.057Z" fill="white"/>
<path d="M412.167 643.782C411.192 645.257 409.742 645.982 407.842 645.982C406.267 645.982 405.367 645.357 405.117 644.132C404.367 642.757 403.942 641.207 403.842 639.482H404.492C404.592 639.932 404.717 640.357 404.867 640.757C405.017 641.132 405.092 641.532 405.117 641.907C405.867 642.732 406.767 643.157 407.842 643.157C409.192 643.157 410.367 642.582 411.367 641.432C412.392 640.257 412.892 638.957 412.892 637.532C412.892 636.282 412.242 635.107 410.967 634.007C409.692 632.882 408.267 632.332 406.717 632.332C405.967 632.257 405.517 632.057 405.367 631.732C405.217 631.407 405.117 631.082 405.117 630.757C405.117 630.507 405.167 630.307 405.242 630.107C405.317 629.907 405.692 629.807 406.367 629.807C408.417 629.807 410.117 630.682 411.492 632.457C412.917 634.207 413.617 636.132 413.617 638.282C413.617 640.582 413.142 642.432 412.167 643.782Z" fill="white"/>
<path d="M431.392 644.233C429.792 645.358 427.917 645.908 425.792 645.908C423.542 645.908 421.617 645.308 419.992 644.108C418.367 642.883 417.542 641.458 417.542 639.833C417.542 639.383 417.592 639.008 417.692 638.733C417.792 638.458 417.942 638.083 418.142 637.633H418.592C418.592 639.608 419.417 641.058 421.067 641.983C422.292 642.708 423.867 643.058 425.792 643.058C427.442 643.058 428.942 642.658 430.317 641.858C431.842 641.033 432.592 639.933 432.592 638.533C432.592 638.008 432.442 637.508 432.167 637.058C431.892 636.608 431.517 636.183 431.067 635.808C430.892 636.258 430.617 636.683 430.267 637.058C429.917 637.433 429.492 637.783 428.992 638.108C427.967 638.758 426.917 639.058 425.792 639.058C424.767 639.058 423.942 638.858 423.317 638.483C422.667 638.108 422.367 637.508 422.367 636.733C422.367 635.658 422.792 634.883 423.617 634.408C424.442 633.933 425.442 633.683 426.567 633.683C428.142 633.683 429.267 633.858 429.917 634.208C429.917 633.933 429.892 633.708 429.867 633.483C429.842 633.258 429.767 633.058 429.667 632.833C429.567 632.533 429.267 632.258 428.792 631.983C428.317 631.708 427.817 631.558 427.267 631.558H417.467V629.033H428.592V630.883C429.492 631.233 430.217 631.833 430.717 632.733C430.942 633.108 431.067 633.458 431.167 633.783C431.242 634.108 431.292 634.508 431.292 634.958C432.242 635.608 432.967 636.383 433.442 637.283C433.867 638.033 434.092 638.808 434.092 639.633C434.067 641.483 433.167 643.008 431.392 644.233ZM428.492 634.583C427.992 634.458 427.592 634.408 427.292 634.408C424.967 634.408 423.817 634.958 423.817 636.058C423.817 636.433 424.017 636.733 424.417 636.958C424.817 637.183 425.292 637.308 425.817 637.308C426.767 637.308 427.617 637.083 428.342 636.658C429.067 636.233 429.517 635.683 429.742 634.983C429.417 634.833 429.017 634.708 428.492 634.583Z" fill="white"/>
<path d="M434.967 626.882C434.967 627.582 434.817 628.207 434.542 628.807C434.267 629.382 433.892 629.882 433.442 630.307C432.992 630.732 432.467 631.032 431.892 631.257C431.317 631.482 430.717 631.607 430.092 631.607H427.367V629.032H430.442C430.817 629.032 431.167 628.932 431.492 628.707C431.817 628.482 432.117 628.232 432.417 627.957C432.767 627.657 432.992 627.382 433.092 627.082C433.192 626.782 433.242 626.457 433.242 626.082C433.242 625.632 433.092 625.057 432.817 624.407C432.542 623.732 432.042 623.107 431.367 622.482L432.642 622.832C432.942 622.982 433.217 623.232 433.492 623.532C433.767 623.832 434.017 624.182 434.242 624.557C434.467 624.932 434.617 625.307 434.767 625.707C434.892 626.107 434.967 626.482 434.967 626.832V626.882Z" fill="white"/>
<path d="M434.668 655.833C432.893 657.208 430.893 657.908 428.718 657.908C427.418 657.908 426.143 657.733 424.918 657.383C423.693 657.033 422.768 656.633 422.118 656.133C421.793 655.883 421.518 655.658 421.268 655.408C421.018 655.158 420.768 654.908 420.518 654.633C420.268 654.358 420.043 654.033 419.793 653.658C419.543 653.283 419.268 652.833 418.943 652.308H419.743C420.118 652.833 420.468 653.283 420.818 653.633C421.168 653.983 421.718 654.358 422.493 654.783C423.243 655.183 424.068 655.458 424.943 655.608C425.843 655.758 426.793 655.833 427.793 655.833C428.643 655.833 429.568 655.708 430.543 655.433C431.518 655.158 432.518 654.758 433.518 654.183C435.768 652.883 436.868 651.333 436.868 649.583L436.718 649.308C436.618 649.083 436.393 648.758 436.068 648.333C435.743 647.883 435.343 647.533 434.893 647.283C434.643 647.183 434.543 646.983 434.543 646.733C434.543 646.258 434.818 646.008 435.393 646.008C435.643 646.008 435.818 646.058 435.918 646.158C436.443 646.408 436.893 646.808 437.243 647.358C437.593 647.908 437.768 648.658 437.768 649.608C437.743 652.258 436.718 654.358 434.668 655.833Z" fill="white"/>
<path d="M400.493 643.658C399.568 644.758 398.343 645.308 396.818 645.308C395.868 645.308 394.918 645.008 393.968 644.383C393.018 643.633 392.343 642.633 391.968 641.333C391.593 642.683 390.993 643.683 390.118 644.333C389.268 644.983 388.193 645.283 386.868 645.283C385.343 645.283 384.143 644.808 383.243 643.883C382.343 642.958 381.893 641.633 381.893 639.958C381.893 638.608 382.268 637.558 383.043 636.833C383.668 636.208 384.443 635.908 385.393 635.908C386.318 635.908 387.068 636.108 387.643 636.533C388.218 636.958 388.493 637.633 388.493 638.583C388.493 639.333 388.268 639.908 387.793 640.283C387.318 640.658 386.768 640.858 386.093 640.858L386.018 640.533C386.168 640.458 386.343 640.333 386.468 640.183C386.618 640.033 386.743 639.858 386.868 639.658C386.993 639.483 387.093 639.283 387.193 639.108C387.293 638.933 387.343 638.783 387.368 638.658C387.218 638.258 386.918 637.933 386.518 637.708C386.118 637.483 385.743 637.358 385.368 637.358C384.543 637.358 383.868 637.558 383.343 637.983C382.818 638.408 382.568 638.983 382.568 639.733C382.568 640.133 382.693 640.508 382.918 640.833C383.143 641.158 383.443 641.458 383.793 641.683C384.143 641.908 384.568 642.108 385.043 642.233C385.518 642.358 385.993 642.408 386.468 642.408C387.593 642.408 388.618 642.133 389.543 641.608C390.493 641.033 391.318 640.083 391.993 638.808C392.868 641.208 394.218 642.408 396.043 642.408C397.493 642.408 398.568 642.058 399.293 641.333C399.868 640.758 400.218 639.958 400.343 638.933L400.393 638.008C400.393 635.083 399.468 632.483 397.643 630.158C395.643 627.683 393.218 626.433 390.393 626.433H389.918C390.618 627.208 390.968 628.083 390.968 629.058C390.968 629.808 390.793 630.408 390.418 630.883C390.043 631.358 389.493 631.608 388.743 631.608C387.893 631.608 387.118 631.333 386.418 630.808C385.643 630.183 385.268 629.283 385.268 628.058C385.268 626.983 385.493 626.233 385.918 625.808C386.543 625.283 387.718 625.008 389.493 625.008C392.818 625.008 395.743 626.508 398.268 629.533C400.693 632.433 401.918 635.583 401.918 638.983C401.893 640.983 401.418 642.558 400.493 643.658ZM389.293 627.358C389.043 627.008 388.743 626.833 388.368 626.833C387.743 626.833 387.293 627.008 386.968 627.333C386.643 627.658 386.493 628.108 386.493 628.658C386.493 629.033 386.643 629.383 386.918 629.708C387.193 630.033 387.568 630.183 388.018 630.183C388.443 630.183 388.818 630.008 389.168 629.683C389.493 629.358 389.668 628.983 389.668 628.558C389.643 628.108 389.518 627.708 389.293 627.358Z" fill="#070808"/>
<path d="M410.792 643.108C409.817 644.583 408.367 645.308 406.467 645.308C404.892 645.308 403.992 644.683 403.742 643.458C402.992 642.083 402.567 640.533 402.467 638.808H403.117C403.217 639.258 403.342 639.683 403.492 640.083C403.642 640.458 403.717 640.858 403.742 641.233C404.492 642.058 405.392 642.483 406.467 642.483C407.817 642.483 408.992 641.908 409.992 640.758C411.017 639.583 411.517 638.283 411.517 636.858C411.517 635.608 410.867 634.433 409.592 633.333C408.317 632.208 406.892 631.658 405.342 631.658C404.592 631.583 404.142 631.383 403.992 631.058C403.842 630.733 403.742 630.408 403.742 630.083C403.742 629.833 403.792 629.633 403.867 629.433C403.942 629.233 404.317 629.133 404.992 629.133C407.042 629.133 408.742 630.008 410.117 631.783C411.542 633.533 412.242 635.458 412.242 637.608C412.242 639.908 411.767 641.733 410.792 643.108Z" fill="#070808"/>
<path d="M430.017 643.559C428.417 644.684 426.542 645.234 424.417 645.234C422.167 645.234 420.242 644.634 418.617 643.434C416.992 642.209 416.167 640.784 416.167 639.159C416.167 638.709 416.217 638.334 416.317 638.059C416.417 637.784 416.567 637.409 416.767 636.959H417.217C417.217 638.934 418.042 640.384 419.692 641.309C420.917 642.034 422.492 642.384 424.417 642.384C426.067 642.384 427.567 641.984 428.942 641.184C430.467 640.359 431.217 639.259 431.217 637.859C431.217 637.334 431.067 636.834 430.792 636.384C430.517 635.934 430.142 635.509 429.692 635.134C429.517 635.584 429.242 636.009 428.892 636.384C428.542 636.759 428.117 637.109 427.617 637.434C426.592 638.084 425.542 638.384 424.417 638.384C423.392 638.384 422.567 638.184 421.942 637.809C421.292 637.434 420.992 636.834 420.992 636.059C420.992 634.984 421.417 634.209 422.242 633.734C423.067 633.259 424.067 633.009 425.192 633.009C426.767 633.009 427.892 633.184 428.542 633.534C428.542 633.259 428.517 633.034 428.492 632.809C428.467 632.584 428.392 632.384 428.292 632.159C428.192 631.859 427.892 631.584 427.417 631.309C426.942 631.034 426.442 630.884 425.892 630.884H416.092V628.334H427.217V630.184C428.117 630.534 428.842 631.134 429.342 632.034C429.567 632.409 429.692 632.759 429.792 633.084C429.867 633.409 429.917 633.809 429.917 634.259C430.867 634.909 431.592 635.684 432.067 636.584C432.492 637.334 432.717 638.109 432.717 638.934C432.692 640.784 431.792 642.334 430.017 643.559ZM427.117 633.884C426.617 633.759 426.217 633.709 425.917 633.709C423.592 633.709 422.442 634.259 422.442 635.359C422.442 635.734 422.642 636.034 423.042 636.259C423.442 636.484 423.917 636.609 424.442 636.609C425.392 636.609 426.242 636.384 426.967 635.959C427.692 635.534 428.142 634.984 428.367 634.284C428.042 634.134 427.642 634.009 427.117 633.884Z" fill="#070808"/>
<path d="M433.592 626.184C433.592 626.884 433.442 627.509 433.167 628.109C432.892 628.684 432.517 629.184 432.067 629.609C431.617 630.034 431.092 630.334 430.517 630.559C429.942 630.784 429.342 630.909 428.717 630.909H425.992V628.359H429.092C429.467 628.359 429.817 628.259 430.142 628.034C430.467 627.809 430.767 627.559 431.067 627.284C431.417 626.984 431.642 626.709 431.742 626.409C431.842 626.109 431.892 625.784 431.892 625.409C431.892 624.959 431.742 624.384 431.467 623.734C431.192 623.059 430.692 622.434 430.017 621.809L431.292 622.159C431.592 622.309 431.867 622.559 432.142 622.859C432.417 623.159 432.667 623.509 432.892 623.884C433.117 624.259 433.267 624.634 433.417 625.034C433.542 625.434 433.617 625.809 433.617 626.159V626.184H433.592Z" fill="#070808"/>
<path d="M433.293 655.159C431.518 656.534 429.518 657.234 427.343 657.234C426.043 657.234 424.768 657.059 423.543 656.709C422.318 656.359 421.393 655.959 420.743 655.459C420.418 655.209 420.143 654.984 419.893 654.734C419.643 654.484 419.393 654.234 419.143 653.959C418.893 653.684 418.668 653.359 418.418 652.984C418.168 652.609 417.893 652.159 417.568 651.634H418.368C418.743 652.159 419.093 652.609 419.443 652.959C419.793 653.309 420.343 653.684 421.118 654.109C421.868 654.509 422.693 654.784 423.568 654.934C424.468 655.084 425.418 655.159 426.418 655.159C427.268 655.159 428.193 655.034 429.168 654.759C430.143 654.484 431.143 654.084 432.143 653.509C434.393 652.209 435.493 650.659 435.493 648.909L435.343 648.634C435.243 648.409 435.018 648.084 434.693 647.659C434.368 647.209 433.968 646.859 433.518 646.609C433.268 646.509 433.168 646.309 433.168 646.059C433.168 645.584 433.443 645.334 434.018 645.334C434.268 645.334 434.443 645.384 434.543 645.484C435.068 645.734 435.518 646.134 435.868 646.684C436.218 647.234 436.393 647.984 436.393 648.934C436.368 651.584 435.343 653.659 433.293 655.159Z" fill="#070808"/>
<path opacity="0.75" d="M453.693 596.383H366.018V617.558H453.693V596.383Z" fill="white"/>
<path d="M395.043 616.432H385.518V615.932H386.118C387.068 615.932 387.668 615.632 387.943 615.007C388.043 614.782 388.093 614.207 388.093 613.307V599.757L381.093 616.432H380.768L373.643 599.882V612.732C373.643 613.657 373.668 614.207 373.718 614.382C373.968 615.407 374.843 615.907 376.318 615.907V616.407H370.043V615.907H370.243C371.143 615.907 371.793 615.657 372.168 615.157C372.368 614.907 372.493 614.582 372.593 614.182C372.618 614.107 372.618 613.632 372.618 612.807V601.282C372.618 600.557 372.593 600.107 372.568 599.957C372.468 599.507 372.243 599.157 371.843 598.932C371.543 598.757 371.118 598.682 370.618 598.682H370.043V598.182H377.518L382.643 610.232L387.593 598.182H395.018V598.682H394.418C393.468 598.682 392.868 598.982 392.593 599.607C392.493 599.832 392.443 600.382 392.443 601.282V613.307C392.443 614.057 392.468 614.507 392.493 614.632C392.593 615.107 392.818 615.432 393.218 615.657C393.518 615.832 393.943 615.932 394.443 615.932H395.043V616.432Z" fill="white"/>
<path d="M402.917 616.431H396.117V615.931C396.667 615.906 397.092 615.756 397.367 615.456C397.542 615.256 397.642 614.706 397.642 613.806V606.456C397.642 605.681 397.567 605.181 397.442 604.931C397.242 604.581 396.817 604.381 396.142 604.331V603.831H401.417V613.806C401.417 614.581 401.492 615.081 401.617 615.331C401.817 615.681 402.242 615.881 402.942 615.931V616.431H402.917ZM401.592 599.831C401.592 600.406 401.392 600.881 400.992 601.306C400.592 601.706 400.092 601.906 399.517 601.906C398.942 601.906 398.467 601.706 398.042 601.306C397.642 600.906 397.442 600.406 397.442 599.831C397.442 599.256 397.642 598.756 398.042 598.356C398.442 597.956 398.942 597.756 399.517 597.756C400.092 597.756 400.592 597.956 400.992 598.356C401.392 598.756 401.592 599.256 401.592 599.831Z" fill="white"/>
<path d="M412.119 614.031C411.394 615.756 410.219 616.606 408.569 616.606C407.869 616.606 407.244 616.406 406.669 616.031C406.069 615.631 405.669 615.106 405.494 614.456C405.394 614.131 405.369 613.306 405.369 611.981V605.181H403.719V604.706C405.869 603.181 407.519 601.356 408.694 599.256H409.144V603.856H412.144V605.181H409.144V612.956C409.144 614.006 409.294 614.656 409.594 614.881C409.769 615.006 409.919 615.081 410.069 615.081C410.644 615.081 411.194 614.631 411.719 613.756L412.119 614.031Z" fill="white"/>
<path d="M426.944 616.43H420.569V615.93C421.019 615.88 421.369 615.68 421.569 615.38C421.719 615.155 421.819 614.58 421.819 613.68V608.08C421.819 607.28 421.819 606.83 421.794 606.705C421.719 606.13 421.569 605.73 421.294 605.505C421.094 605.355 420.869 605.28 420.644 605.28C419.919 605.28 419.194 605.83 418.494 606.955V613.705C418.494 614.605 418.569 615.155 418.694 615.38C418.869 615.68 419.219 615.88 419.744 615.955V616.455H413.344V615.955C413.869 615.905 414.244 615.73 414.469 615.455C414.619 615.255 414.694 614.68 414.694 613.73V600.955C414.694 600.155 414.644 599.63 414.569 599.43C414.394 599.055 413.994 598.805 413.344 598.73V598.23H418.469V605.53C419.744 604.205 420.969 603.53 422.169 603.53C422.894 603.53 423.544 603.73 424.119 604.155C424.694 604.58 425.094 605.105 425.319 605.78C425.494 606.38 425.594 607.405 425.594 608.855V613.755C425.594 614.555 425.644 615.08 425.719 615.28C425.894 615.68 426.294 615.93 426.944 616.005V616.43V616.43Z" fill="white"/>
<path d="M439.568 605.255C439.568 605.755 439.443 606.205 439.218 606.555C438.943 606.955 438.568 607.155 438.068 607.155C437.643 607.155 437.318 607.055 437.043 606.83C436.768 606.605 436.493 606.405 436.218 606.18C436.118 606.13 436.018 606.105 435.918 606.105C435.668 606.105 435.418 606.205 435.168 606.405C434.793 606.73 434.518 607.155 434.343 607.705C434.043 608.58 433.918 609.53 433.918 610.58L433.943 614.23C433.943 614.78 433.993 615.105 434.043 615.205C434.243 615.655 434.768 615.905 435.593 615.955V616.455H428.768V615.955C429.443 615.905 429.868 615.63 430.043 615.155C430.118 614.93 430.168 614.355 430.168 613.48V606.53C430.168 605.805 430.143 605.355 430.068 605.155C429.918 604.705 429.468 604.43 428.768 604.355V603.855H433.918V606.705C435.293 604.555 436.643 603.48 437.943 603.48C439.018 603.48 439.568 604.055 439.568 605.255Z" fill="white"/>
<path d="M453.319 614.705C452.469 615.98 451.444 616.605 450.294 616.605C448.869 616.605 448.044 615.93 447.869 614.58C446.344 615.93 444.944 616.605 443.744 616.605C443.019 616.605 442.419 616.38 441.944 615.905C441.469 615.43 441.219 614.855 441.219 614.13C441.219 612.855 442.069 611.68 443.744 610.555C444.369 610.13 445.744 609.43 447.869 608.48V607.205C447.869 606.455 447.844 606.005 447.819 605.83C447.719 605.33 447.494 604.98 447.119 604.73C446.819 604.555 446.519 604.455 446.144 604.455C445.569 604.455 445.069 604.58 444.694 604.855C444.469 605.005 444.344 605.205 444.344 605.43C444.344 605.63 444.469 605.855 444.719 606.13C445.069 606.505 445.244 606.88 445.244 607.255C445.244 607.73 445.069 608.13 444.719 608.405C444.369 608.705 443.944 608.855 443.469 608.855C442.944 608.855 442.494 608.705 442.119 608.405C441.694 608.08 441.494 607.655 441.494 607.155C441.494 606.405 441.819 605.73 442.444 605.13C442.969 604.63 443.619 604.23 444.419 603.955C445.344 603.63 446.294 603.48 447.269 603.48C448.194 603.48 449.019 603.68 449.769 604.055C450.619 604.48 451.194 605.105 451.469 605.905C451.594 606.28 451.669 607.13 451.669 608.505V613.38C451.669 614.18 451.769 614.655 451.944 614.805C452.044 614.88 452.144 614.905 452.244 614.905C452.469 614.905 452.719 614.755 452.969 614.43L453.319 614.705ZM447.869 613.605V609.38C445.894 610.53 444.919 611.705 444.919 612.905C444.919 613.33 445.069 613.68 445.369 614.005C445.594 614.255 445.919 614.38 446.319 614.38C446.744 614.355 447.269 614.105 447.869 613.605Z" fill="white"/>
<path d="M393.768 616.132H384.243V615.632H384.843C385.793 615.632 386.393 615.332 386.668 614.707C386.768 614.482 386.818 613.907 386.818 613.007V599.457L379.818 616.132H379.493L372.368 599.582V612.432C372.368 613.357 372.393 613.907 372.443 614.082C372.693 615.107 373.568 615.607 375.043 615.607V616.107H368.768V615.607H368.968C369.868 615.607 370.518 615.357 370.893 614.857C371.093 614.607 371.218 614.282 371.318 613.882C371.343 613.807 371.343 613.332 371.343 612.507V600.957C371.343 600.232 371.318 599.782 371.293 599.632C371.193 599.182 370.968 598.832 370.568 598.607C370.268 598.432 369.843 598.357 369.343 598.357H368.768V597.857H376.243L381.368 609.907L386.318 597.857H393.743V598.357H393.143C392.193 598.357 391.593 598.657 391.318 599.282C391.218 599.507 391.168 600.057 391.168 600.957V612.982C391.168 613.732 391.193 614.182 391.218 614.307C391.318 614.782 391.543 615.107 391.943 615.332C392.243 615.507 392.668 615.607 393.168 615.607H393.768V616.132Z" fill="black"/>
<path d="M401.642 616.132H394.842V615.632C395.392 615.607 395.817 615.457 396.092 615.157C396.267 614.957 396.367 614.407 396.367 613.507V606.157C396.367 605.382 396.292 604.882 396.167 604.632C395.967 604.282 395.542 604.082 394.867 604.032V603.532H400.142V613.507C400.142 614.282 400.217 614.782 400.342 615.032C400.542 615.382 400.967 615.582 401.667 615.632V616.132H401.642ZM400.317 599.532C400.317 600.107 400.117 600.582 399.717 601.007C399.317 601.407 398.817 601.607 398.242 601.607C397.667 601.607 397.192 601.407 396.767 601.007C396.367 600.607 396.167 600.107 396.167 599.532C396.167 598.957 396.367 598.457 396.767 598.057C397.167 597.657 397.667 597.457 398.242 597.457C398.817 597.457 399.317 597.657 399.717 598.057C400.117 598.457 400.317 598.932 400.317 599.532Z" fill="black"/>
<path d="M410.843 613.707C410.118 615.432 408.943 616.282 407.293 616.282C406.593 616.282 405.968 616.082 405.393 615.707C404.793 615.307 404.393 614.782 404.218 614.132C404.118 613.807 404.093 612.982 404.093 611.657V604.857H402.443V604.382C404.593 602.857 406.243 601.032 407.418 598.932H407.868V603.532H410.868V604.857H407.868V612.632C407.868 613.682 408.018 614.332 408.318 614.557C408.493 614.682 408.643 614.757 408.793 614.757C409.368 614.757 409.918 614.307 410.443 613.432L410.843 613.707Z" fill="black"/>
<path d="M425.667 616.132H419.292V615.632C419.742 615.582 420.092 615.382 420.292 615.082C420.442 614.857 420.542 614.282 420.542 613.382V607.782C420.542 606.982 420.542 606.532 420.517 606.407C420.442 605.832 420.292 605.432 420.017 605.207C419.817 605.057 419.592 604.982 419.367 604.982C418.642 604.982 417.917 605.532 417.217 606.657V613.407C417.217 614.307 417.292 614.857 417.417 615.082C417.592 615.382 417.942 615.582 418.467 615.657V616.157H412.092V615.657C412.617 615.607 412.992 615.432 413.217 615.157C413.367 614.957 413.442 614.382 413.442 613.432V600.657C413.442 599.857 413.392 599.332 413.317 599.132C413.142 598.757 412.742 598.507 412.092 598.432V597.932H417.217V605.232C418.492 603.907 419.717 603.232 420.917 603.232C421.642 603.232 422.292 603.432 422.867 603.857C423.442 604.282 423.842 604.807 424.067 605.482C424.242 606.082 424.342 607.107 424.342 608.557V613.457C424.342 614.257 424.392 614.782 424.467 614.982C424.642 615.382 425.042 615.632 425.692 615.707V616.132H425.667Z" fill="black"/>
<path d="M438.292 604.931C438.292 605.431 438.167 605.881 437.942 606.231C437.667 606.631 437.292 606.831 436.792 606.831C436.367 606.831 436.042 606.731 435.767 606.506C435.492 606.281 435.217 606.081 434.942 605.856C434.842 605.806 434.742 605.781 434.642 605.781C434.392 605.781 434.142 605.881 433.892 606.081C433.517 606.406 433.242 606.831 433.067 607.381C432.767 608.256 432.642 609.206 432.642 610.256L432.667 613.906C432.667 614.456 432.717 614.781 432.767 614.881C432.967 615.331 433.492 615.581 434.317 615.631V616.131H427.492V615.631C428.167 615.581 428.592 615.306 428.767 614.831C428.842 614.606 428.892 614.031 428.892 613.156V606.206C428.892 605.481 428.867 605.031 428.792 604.831C428.642 604.381 428.192 604.106 427.492 604.031V603.531H432.642V606.381C434.017 604.231 435.367 603.156 436.667 603.156C437.742 603.156 438.292 603.756 438.292 604.931Z" fill="black"/>
<path d="M452.043 614.407C451.193 615.682 450.168 616.307 449.018 616.307C447.593 616.307 446.768 615.632 446.593 614.282C445.068 615.632 443.668 616.307 442.468 616.307C441.743 616.307 441.143 616.082 440.668 615.607C440.193 615.132 439.943 614.557 439.943 613.832C439.943 612.557 440.793 611.382 442.468 610.257C443.093 609.832 444.468 609.132 446.593 608.182V606.907C446.593 606.157 446.568 605.707 446.543 605.532C446.443 605.032 446.218 604.682 445.843 604.432C445.543 604.257 445.243 604.157 444.868 604.157C444.293 604.157 443.793 604.282 443.418 604.557C443.193 604.707 443.068 604.907 443.068 605.132C443.068 605.332 443.193 605.557 443.443 605.832C443.793 606.207 443.968 606.582 443.968 606.957C443.968 607.432 443.793 607.832 443.443 608.107C443.093 608.407 442.668 608.557 442.193 608.557C441.668 608.557 441.218 608.407 440.843 608.107C440.418 607.782 440.218 607.357 440.218 606.857C440.218 606.107 440.543 605.432 441.168 604.832C441.693 604.332 442.343 603.932 443.143 603.657C444.068 603.332 445.018 603.182 445.993 603.182C446.918 603.182 447.743 603.382 448.493 603.757C449.343 604.182 449.918 604.807 450.193 605.607C450.318 605.982 450.393 606.832 450.393 608.207V613.032C450.393 613.832 450.493 614.307 450.668 614.457C450.768 614.532 450.868 614.557 450.968 614.557C451.193 614.557 451.443 614.407 451.693 614.082L452.043 614.407ZM446.568 613.307V609.082C444.593 610.232 443.618 611.407 443.618 612.607C443.618 613.032 443.768 613.382 444.068 613.707C444.293 613.957 444.618 614.082 445.018 614.082C445.468 614.057 445.993 613.807 446.568 613.307Z" fill="black"/>
</g>
<path opacity="0.1" d="M120.625 434.014L140.921 509.661L196.272 454.177L120.625 434.014Z" fill="white"/>
<path opacity="0.1" d="M613.244 1082.31L633.54 1157.96L688.891 1102.47L613.244 1082.31Z" fill="white"/>
<path opacity="0.1" d="M-7.85352 12.5098L12.4421 88.157L67.7937 32.6736L-7.85352 12.5098Z" fill="white"/>
<path opacity="0.1" d="M98.6172 412.004L118.913 487.651L174.396 432.168L98.6172 412.004Z" stroke="white" stroke-width="5" stroke-miterlimit="10"/>
<path opacity="0.1" d="M591.236 1060.3L611.532 1135.95L667.015 1080.46L591.236 1060.3Z" stroke="white" stroke-width="5" stroke-miterlimit="10"/>
<path opacity="0.1" d="M-29.8613 -9.5L-9.56573 66.1473L45.9177 10.6638L-29.8613 -9.5Z" stroke="white" stroke-width="5" stroke-miterlimit="10"/>
<defs>
<linearGradient id="paint0_linear_1206_3681" x1="3.06287e-06" y1="600.284" x2="822.184" y2="600.284" gradientUnits="userSpaceOnUse">
<stop stop-color="#4D80F0"/>
<stop offset="1" stop-color="#4EC1EC"/>
</linearGradient>
<linearGradient id="paint1_linear_1206_3681" x1="370.163" y1="515.179" x2="410.219" y2="618.607" gradientUnits="userSpaceOnUse">
<stop stop-color="#D4509D"/>
<stop offset="0.1933" stop-color="#D4509D"/>
<stop offset="0.2798" stop-color="#CD4F9D"/>
<stop offset="0.4285" stop-color="#B94C9C"/>
<stop offset="0.6214" stop-color="#99489C"/>
<stop offset="0.8486" stop-color="#6D449B"/>
<stop offset="1" stop-color="#48429A"/>
</linearGradient>
<linearGradient id="paint2_linear_1206_3681" x1="461.795" y1="483.445" x2="379.434" y2="663.744" gradientUnits="userSpaceOnUse">
<stop stop-color="#51C4CC"/>
<stop offset="0.0538942" stop-color="#52B9C7"/>
<stop offset="0.3166" stop-color="#4D8DB7"/>
<stop offset="0.5519" stop-color="#4A6DAA"/>
<stop offset="0.7513" stop-color="#4957A1"/>
<stop offset="0.907" stop-color="#48479C"/>
<stop offset="1" stop-color="#48429A"/>
</linearGradient>
<linearGradient id="paint3_linear_1206_3681" x1="386.722" y1="444.413" x2="355.705" y2="489.904" gradientUnits="userSpaceOnUse">
<stop offset="0.1487" stop-color="#D5EEF6"/>
<stop offset="0.2439" stop-color="#B9E1F2"/>
<stop offset="0.4082" stop-color="#8CD0EE"/>
<stop offset="0.5696" stop-color="#66C4EA"/>
<stop offset="0.7248" stop-color="#42BCE8"/>
<stop offset="0.8713" stop-color="#1DB7E7"/>
<stop offset="1" stop-color="#00B6E7"/>
</linearGradient>
<linearGradient id="paint4_linear_1206_3681" x1="405.293" y1="409.424" x2="377.395" y2="440.373" gradientUnits="userSpaceOnUse">
<stop offset="0.109" stop-color="#D5EEF6"/>
<stop offset="0.2799" stop-color="#B3DFF2"/>
<stop offset="0.6176" stop-color="#71C7EB"/>
<stop offset="0.8674" stop-color="#38BAE8"/>
<stop offset="1" stop-color="#00B6E7"/>
</linearGradient>
<linearGradient id="paint5_linear_1206_3681" x1="414.741" y1="409.339" x2="442.732" y2="440.39" gradientUnits="userSpaceOnUse">
<stop offset="0.109" stop-color="#D5EEF6"/>
<stop offset="0.2799" stop-color="#B3DFF2"/>
<stop offset="0.6176" stop-color="#71C7EB"/>
<stop offset="0.8674" stop-color="#38BAE8"/>
<stop offset="1" stop-color="#00B6E7"/>
</linearGradient>
<linearGradient id="paint6_linear_1206_3681" x1="433.356" y1="444.455" x2="464.374" y2="489.947" gradientUnits="userSpaceOnUse">
<stop offset="0.1487" stop-color="#D5EEF6"/>
<stop offset="0.2439" stop-color="#B9E1F2"/>
<stop offset="0.4082" stop-color="#8CD0EE"/>
<stop offset="0.5696" stop-color="#66C4EA"/>
<stop offset="0.7248" stop-color="#42BCE8"/>
<stop offset="0.8713" stop-color="#1DB7E7"/>
<stop offset="1" stop-color="#00B6E7"/>
</linearGradient>
<linearGradient id="paint7_linear_1206_3681" x1="313.304" y1="425.33" x2="401.289" y2="570.867" gradientUnits="userSpaceOnUse">
<stop stop-color="#92278F"/>
<stop offset="1" stop-color="#EC008C"/>
</linearGradient>
<linearGradient id="paint8_linear_1206_3681" x1="484.316" y1="472.49" x2="415.297" y2="561.917" gradientUnits="userSpaceOnUse">
<stop stop-color="#EC008C"/>
<stop offset="1" stop-color="#92278F"/>
</linearGradient>
<clipPath id="clip0_1206_3681">
<rect width="300" height="300" fill="white" transform="translate(260.092 370.283)"/>
</clipPath>
</defs>
</svg>
