<svg width="32" height="32" viewBox="0 0 32 32" fill="none" xmlns="http://www.w3.org/2000/svg">
<path d="M0.173828 5.57907C0.38322 5.02069 0.515835 4.41345 0.808983 3.90393C1.64655 2.47309 2.94478 1.70532 4.60595 1.69834C8.56345 1.67043 12.514 1.68438 16.4715 1.69136C17.3928 1.69136 18.0559 2.34048 18.0419 3.20596C18.028 4.05051 17.3719 4.6717 16.4645 4.6717C12.5908 4.6717 8.71701 4.6717 4.84326 4.6717C3.74047 4.6717 3.16115 5.25102 3.16115 6.33986C3.16115 13.166 3.16115 19.9992 3.16115 26.8253C3.16115 27.9072 3.73349 28.4865 4.81534 28.4865C11.6555 28.4865 18.4956 28.4865 25.3357 28.4865C26.4036 28.4865 26.9829 27.8863 26.9829 26.8114C26.9829 22.9237 26.9829 19.0429 26.9829 15.1552C26.9829 14.0664 27.9601 13.3475 28.9512 13.6825C29.5794 13.8919 29.9563 14.4573 29.9633 15.1971C29.9703 16.5372 29.9633 17.8704 29.9633 19.2105C29.9633 21.6883 29.9633 24.1661 29.9633 26.6439C29.9633 29.0938 28.8186 30.6363 26.4804 31.3622C26.4595 31.3691 26.4455 31.3901 26.4246 31.404C18.8376 31.404 11.2576 31.404 3.67067 31.404C3.58691 31.3691 3.51013 31.3273 3.4194 31.2993C2.23983 30.9434 1.3185 30.2384 0.746166 29.1566C0.487916 28.661 0.362281 28.0956 0.173828 27.5652C0.173828 20.2365 0.173828 12.9078 0.173828 5.57907Z" fill="#414040"/>
<path d="M25.8849 0.510742C27.6437 2.26963 29.3817 4.00758 31.1336 5.75949C31.0778 5.82231 31.001 5.90606 30.9172 5.98284C27.1412 9.76585 23.3722 13.5419 19.5891 17.3039C19.3728 17.5203 19.0587 17.6948 18.7586 17.7576C17.1323 18.1066 15.506 18.4207 13.8727 18.7418C13.2027 18.8744 12.763 18.4556 12.8886 17.7925C13.2236 16.0965 13.5656 14.4004 13.9216 12.7043C13.9565 12.5228 14.0612 12.3274 14.1868 12.1948C18.0606 8.30709 21.9483 4.42637 25.829 0.545641C25.85 0.531681 25.8709 0.517722 25.8849 0.510742Z" fill="#414040"/>
</svg>
