<svg width="301" height="301" viewBox="0 0 301 301" fill="none" xmlns="http://www.w3.org/2000/svg">
<g clip-path="url(#clip0_625_814)">
<circle cx="150.091" cy="150.81" r="149.474" fill="white"/>
<path d="M149.841 27.2091V248.959C113.016 248.959 102.341 248.909 96.8414 248.884C90.4914 248.834 108.541 228.959 89.6914 209.259C85.9414 205.334 77.4414 205.559 68.8164 205.884C60.5164 206.209 52.2164 206.534 48.3914 202.934C42.6664 197.559 44.5914 188.734 44.5914 184.784C44.5914 180.859 43.2414 182.209 41.1164 179.534C38.9914 176.859 39.9414 173.409 39.9414 173.409C39.9414 173.409 37.0164 172.134 36.2914 168.059C35.5164 163.659 39.4664 163.359 39.3164 158.959C39.1664 154.559 28.9414 152.834 28.9414 148.109C28.9414 140.709 47.2664 132.584 47.3164 123.459C47.5164 86.1341 54.1664 64.6841 63.2164 51.9341C64.1664 50.5841 65.1664 49.3341 66.1664 48.1591C78.1414 34.3091 93.1914 33.0091 103.241 29.8841C113.066 28.0341 130.966 26.8841 149.841 27.2091Z" fill="url(#paint0_linear_625_814)"/>
<path d="M260.367 158.984C260.217 163.384 264.142 163.659 263.392 168.084C262.692 172.159 259.742 173.434 259.742 173.434C259.742 173.434 260.692 176.884 258.567 179.559C256.442 182.234 255.092 180.884 255.092 184.809C255.092 188.734 257.017 197.559 251.292 202.959C247.467 206.559 239.167 206.234 230.892 205.909C222.267 205.559 213.792 205.359 210.017 209.284C191.142 228.984 209.217 248.859 202.867 248.909C197.367 248.959 186.692 248.984 149.867 248.984V27.2344C168.742 26.9094 186.642 28.0594 196.442 29.9344C206.492 33.0594 221.567 34.3594 233.542 48.2094C234.542 49.3594 235.517 50.6094 236.467 51.9594C245.517 64.7094 252.167 86.1594 252.367 123.509C252.417 132.634 270.742 140.759 270.742 148.159C270.717 152.884 260.517 154.584 260.367 158.984Z" fill="url(#paint1_linear_625_814)"/>
<path d="M150.067 99.8336L149.842 135.084C126.842 153.334 107.642 143.184 107.642 143.184C78.1422 129.059 89.5172 121.809 89.5172 121.809C111.892 124.934 128.767 112.434 128.767 112.434L127.642 111.184C82.6422 131.934 79.8922 108.434 79.8922 108.434C78.1422 92.0586 95.3922 98.8336 95.3922 98.8336L95.7672 97.3086C74.8922 91.9336 74.3922 81.1836 74.3922 81.1836C71.1422 64.1836 83.7672 62.1836 83.7672 62.1836C90.1422 69.3086 99.1422 71.0586 99.1422 71.0586C96.2172 82.5086 109.767 90.6836 109.767 90.6836L111.142 89.0586C97.7672 81.0586 101.142 71.9336 101.142 71.9336C107.142 74.6836 116.042 73.6836 116.042 73.6836V71.8086C102.642 73.6836 88.0172 63.4336 88.0172 63.4336C73.8672 51.4336 87.5172 37.8086 87.5172 37.8086C141.817 65.0086 150.067 99.8336 150.067 99.8336Z" fill="url(#paint2_linear_625_814)"/>
<path d="M149.893 46.1333L150.068 99.8083C150.068 99.8083 141.818 64.9833 87.543 37.7833C87.543 37.7833 87.568 37.7833 87.593 37.7583C88.568 37.0833 107.243 24.5583 127.143 29.4083C127.568 29.5083 127.993 29.6083 128.393 29.7333C128.843 29.8583 129.293 29.9833 129.718 30.1333C129.943 30.2083 130.193 30.2833 130.418 30.3583C130.593 30.4083 130.768 30.4833 130.968 30.5333C131.118 30.5833 131.268 30.6583 131.418 30.7083C131.618 30.7833 131.818 30.8583 132.018 30.9333C143.568 35.3583 149.843 44.5083 149.843 44.5083C149.843 44.5583 149.868 46.1333 149.893 46.1333Z" fill="url(#paint3_linear_625_814)"/>
<path d="M150.067 99.8337C150.067 99.8337 158.317 65.0087 212.592 37.8087C212.592 37.8087 212.567 37.8087 212.542 37.7837C211.567 37.1087 192.892 24.5837 172.992 29.4337C172.567 29.5337 172.142 29.6337 171.742 29.7587C171.292 29.8837 170.842 30.0087 170.417 30.1587C170.192 30.2337 169.942 30.3087 169.717 30.3837C169.542 30.4337 169.367 30.5087 169.167 30.5587C169.017 30.6087 168.867 30.6837 168.717 30.7337C168.517 30.8087 168.317 30.8837 168.117 30.9587C156.567 35.3837 149.867 44.5087 149.867 44.5337C149.842 44.5587 150.067 99.8337 150.067 99.8337Z" fill="url(#paint4_linear_625_814)"/>
<path d="M150.068 99.834L150.043 134.934C173.043 153.184 192.443 143.209 192.443 143.209C221.943 129.084 210.568 121.834 210.568 121.834C188.193 124.959 171.318 112.459 171.318 112.459L172.443 111.209C217.443 131.959 220.193 108.459 220.193 108.459C221.943 92.084 204.693 98.859 204.693 98.859L204.318 97.334C225.193 91.959 225.693 81.209 225.693 81.209C228.943 64.209 216.318 62.209 216.318 62.209C209.943 69.334 200.943 71.084 200.943 71.084C203.868 82.534 190.318 90.709 190.318 90.709L188.943 89.084C202.318 81.084 198.943 71.959 198.943 71.959C192.943 74.709 184.043 73.709 184.043 73.709V71.834C197.443 73.709 212.068 63.459 212.068 63.459C226.218 51.459 212.568 37.834 212.568 37.834C158.293 65.009 150.068 99.834 150.068 99.834Z" fill="url(#paint5_linear_625_814)"/>
<path d="M149.78 248.959C149.78 248.959 141.105 192.484 101.53 173.709C101.53 173.709 50.5802 153.284 53.1802 88.7836C53.1802 88.7836 53.3052 85.1086 54.1052 79.6836C54.1052 79.6586 54.1052 79.6336 54.1302 79.6086C56.0052 70.0336 57.7052 63.9836 59.4552 59.5336C59.5052 59.3836 59.5802 59.2586 59.6302 59.1086C59.6802 58.9586 59.7552 58.8086 59.8052 58.6836C59.8302 58.6086 59.8552 58.5586 59.8802 58.4836C60.3052 57.4586 60.7802 56.4586 61.2802 55.4336C61.3802 55.2586 61.4552 55.0586 61.5552 54.8836C62.0802 53.8586 62.6302 52.9086 63.1802 51.9586C64.1302 50.6086 65.1302 49.3586 66.1302 48.1836C66.8302 47.8086 67.4552 47.6086 68.0302 47.5086C68.1052 47.4836 68.1552 47.4836 68.2302 47.4836C68.6302 47.4586 69.0552 47.4836 69.4802 47.5836C69.5802 47.6086 69.6802 47.6586 69.7802 47.6836C69.8302 47.7086 69.8802 47.7336 69.9552 47.7586C69.9802 47.7586 70.0052 47.7836 70.0302 47.8086C70.0802 47.8336 70.1302 47.8586 70.1802 47.8836C70.2302 47.9086 70.3052 47.9586 70.3552 47.9836C71.9302 49.0336 72.7052 51.4086 73.0552 53.2586C73.0802 53.4086 73.1052 53.5586 73.1302 53.6836C73.1552 53.8086 73.1802 53.9336 73.1802 54.0336C73.2052 54.1836 73.2302 54.3586 73.2552 54.5336C73.3052 54.9086 73.3552 55.3086 73.3802 55.7336C73.3802 55.7586 73.3802 55.7586 73.3802 55.7836C73.3802 55.7836 62.8552 94.4086 98.0802 129.934C98.0802 129.934 98.0802 129.934 98.1052 129.934C98.3052 129.959 99.5302 130.109 98.9052 129.059C98.9052 129.059 96.1552 124.609 92.7552 118.334C87.7552 109.109 81.3802 95.9836 80.4052 87.4836C80.4052 87.4836 80.1802 79.2086 87.4302 82.9836C87.4302 82.9836 117.73 118.734 119.355 119.984C119.355 119.984 138.93 125.984 146.555 145.109C148.33 149.559 149.655 154.684 149.73 160.634C150.005 175.309 149.78 228.609 149.78 248.959Z" fill="url(#paint6_linear_625_814)"/>
<path d="M198.116 173.709C158.541 192.509 149.866 248.959 149.866 248.959C149.866 228.609 149.666 175.309 149.866 160.659C149.941 154.709 151.266 149.559 153.041 145.134C160.666 126.009 180.241 120.009 180.241 120.009C181.891 118.759 212.166 83.0085 212.166 83.0085C219.416 79.2585 219.191 87.5085 219.191 87.5085C218.216 96.0085 211.841 109.134 206.841 118.359C203.441 124.634 200.691 129.084 200.691 129.084C200.041 130.134 201.291 130.009 201.491 129.959C201.516 129.959 201.516 129.959 201.516 129.959C236.766 94.4335 226.216 55.8085 226.216 55.8085C226.216 55.7835 226.216 55.7835 226.216 55.7585C226.241 55.3335 226.291 54.9585 226.341 54.5585C226.366 54.3835 226.391 54.2335 226.416 54.0585L226.466 53.7085C226.491 53.5585 226.516 53.4335 226.541 53.2835C226.916 51.4335 227.666 49.0585 229.241 48.0085C229.291 47.9585 229.366 47.9335 229.416 47.9085C229.466 47.8835 229.516 47.8585 229.566 47.8335C229.591 47.8085 229.616 47.8085 229.641 47.7835C229.691 47.7585 229.741 47.7335 229.816 47.7085C229.916 47.6585 230.016 47.6335 230.116 47.6085C230.541 47.4835 230.966 47.4585 231.366 47.5085C231.441 47.5085 231.491 47.5085 231.566 47.5335C232.141 47.6085 232.791 47.8335 233.491 48.2085C234.491 49.3585 235.466 50.6085 236.416 51.9585C236.991 52.9085 237.516 53.8585 238.066 54.8835C238.166 55.0585 238.241 55.2585 238.341 55.4335C238.841 56.4335 239.291 57.4585 239.741 58.4835C239.766 58.5585 239.791 58.6085 239.816 58.6835C239.866 58.8335 239.941 58.9585 239.991 59.1085C240.041 59.2585 240.116 59.3835 240.166 59.5335C241.916 63.9835 243.616 70.0335 245.491 79.6085C245.491 79.6335 245.491 79.6585 245.516 79.6835C246.341 85.1085 246.441 88.7835 246.441 88.7835C249.041 153.284 198.116 173.709 198.116 173.709Z" fill="url(#paint7_linear_625_814)"/>
<path d="M141.868 274.332C140.943 275.432 139.718 275.982 138.193 275.982C137.243 275.982 136.293 275.682 135.343 275.057C134.393 274.307 133.718 273.307 133.343 272.007C132.968 273.357 132.368 274.357 131.493 275.007C130.643 275.657 129.568 275.957 128.243 275.957C126.718 275.957 125.518 275.482 124.618 274.557C123.718 273.632 123.268 272.307 123.268 270.632C123.268 269.282 123.643 268.232 124.418 267.507C125.043 266.882 125.818 266.582 126.768 266.582C127.693 266.582 128.443 266.782 129.018 267.207C129.593 267.632 129.868 268.307 129.868 269.257C129.868 270.007 129.643 270.582 129.168 270.957C128.693 271.332 128.143 271.532 127.468 271.532L127.393 271.207C127.543 271.132 127.718 271.007 127.843 270.857C127.993 270.707 128.118 270.532 128.243 270.332C128.368 270.157 128.468 269.957 128.568 269.782C128.668 269.607 128.718 269.457 128.743 269.332C128.593 268.932 128.293 268.607 127.893 268.382C127.493 268.157 127.118 268.032 126.743 268.032C125.918 268.032 125.243 268.232 124.718 268.657C124.193 269.082 123.943 269.657 123.943 270.407C123.943 270.807 124.068 271.182 124.293 271.507C124.518 271.832 124.818 272.132 125.168 272.357C125.518 272.582 125.943 272.782 126.418 272.907C126.893 273.032 127.368 273.082 127.843 273.082C128.968 273.082 129.993 272.807 130.918 272.282C131.868 271.707 132.693 270.757 133.368 269.482C134.243 271.882 135.593 273.082 137.418 273.082C138.868 273.082 139.943 272.732 140.668 272.007C141.243 271.432 141.593 270.632 141.718 269.607L141.768 268.682C141.768 265.757 140.843 263.157 139.018 260.832C137.018 258.357 134.593 257.107 131.768 257.107H131.293C131.993 257.882 132.343 258.757 132.343 259.732C132.343 260.482 132.168 261.082 131.793 261.557C131.418 262.032 130.868 262.282 130.118 262.282C129.268 262.282 128.493 262.007 127.793 261.482C127.018 260.857 126.643 259.957 126.643 258.732C126.643 257.657 126.868 256.907 127.293 256.482C127.918 255.957 129.093 255.682 130.868 255.682C134.193 255.682 137.118 257.182 139.643 260.207C142.068 263.107 143.293 266.257 143.293 269.657C143.268 271.682 142.793 273.232 141.868 274.332ZM130.668 258.057C130.418 257.707 130.118 257.532 129.743 257.532C129.118 257.532 128.668 257.707 128.343 258.032C128.018 258.357 127.868 258.807 127.868 259.357C127.868 259.732 128.018 260.082 128.293 260.407C128.568 260.732 128.943 260.882 129.393 260.882C129.818 260.882 130.193 260.707 130.543 260.382C130.868 260.057 131.043 259.682 131.043 259.257C131.018 258.807 130.893 258.407 130.668 258.057Z" fill="white"/>
<path d="M152.167 273.782C151.192 275.257 149.742 275.982 147.842 275.982C146.267 275.982 145.367 275.357 145.117 274.132C144.367 272.757 143.942 271.207 143.842 269.482H144.492C144.592 269.932 144.717 270.357 144.867 270.757C145.017 271.132 145.092 271.532 145.117 271.907C145.867 272.732 146.767 273.157 147.842 273.157C149.192 273.157 150.367 272.582 151.367 271.432C152.392 270.257 152.892 268.957 152.892 267.532C152.892 266.282 152.242 265.107 150.967 264.007C149.692 262.882 148.267 262.332 146.717 262.332C145.967 262.257 145.517 262.057 145.367 261.732C145.217 261.407 145.117 261.082 145.117 260.757C145.117 260.507 145.167 260.307 145.242 260.107C145.317 259.907 145.692 259.807 146.367 259.807C148.417 259.807 150.117 260.682 151.492 262.457C152.917 264.207 153.617 266.132 153.617 268.282C153.617 270.582 153.142 272.432 152.167 273.782Z" fill="white"/>
<path d="M171.392 274.233C169.792 275.358 167.917 275.908 165.792 275.908C163.542 275.908 161.617 275.308 159.992 274.108C158.367 272.883 157.542 271.458 157.542 269.833C157.542 269.383 157.592 269.008 157.692 268.733C157.792 268.458 157.942 268.083 158.142 267.633H158.592C158.592 269.608 159.417 271.058 161.067 271.983C162.292 272.708 163.867 273.058 165.792 273.058C167.442 273.058 168.942 272.658 170.317 271.858C171.842 271.033 172.592 269.933 172.592 268.533C172.592 268.008 172.442 267.508 172.167 267.058C171.892 266.608 171.517 266.183 171.067 265.808C170.892 266.258 170.617 266.683 170.267 267.058C169.917 267.433 169.492 267.783 168.992 268.108C167.967 268.758 166.917 269.058 165.792 269.058C164.767 269.058 163.942 268.858 163.317 268.483C162.667 268.108 162.367 267.508 162.367 266.733C162.367 265.658 162.792 264.883 163.617 264.408C164.442 263.933 165.442 263.683 166.567 263.683C168.142 263.683 169.267 263.858 169.917 264.208C169.917 263.933 169.892 263.708 169.867 263.483C169.842 263.258 169.767 263.058 169.667 262.833C169.567 262.533 169.267 262.258 168.792 261.983C168.317 261.708 167.817 261.558 167.267 261.558H157.467V259.033H168.592V260.883C169.492 261.233 170.217 261.833 170.717 262.733C170.942 263.108 171.067 263.458 171.167 263.783C171.242 264.108 171.292 264.508 171.292 264.958C172.242 265.608 172.967 266.383 173.442 267.283C173.867 268.033 174.092 268.808 174.092 269.633C174.067 271.483 173.167 273.008 171.392 274.233ZM168.492 264.583C167.992 264.458 167.592 264.408 167.292 264.408C164.967 264.408 163.817 264.958 163.817 266.058C163.817 266.433 164.017 266.733 164.417 266.958C164.817 267.183 165.292 267.308 165.817 267.308C166.767 267.308 167.617 267.083 168.342 266.658C169.067 266.233 169.517 265.683 169.742 264.983C169.417 264.833 169.017 264.708 168.492 264.583Z" fill="white"/>
<path d="M174.967 256.882C174.967 257.582 174.817 258.207 174.542 258.807C174.267 259.382 173.892 259.882 173.442 260.307C172.992 260.732 172.467 261.032 171.892 261.257C171.317 261.482 170.717 261.607 170.092 261.607H167.367V259.032H170.442C170.817 259.032 171.167 258.932 171.492 258.707C171.817 258.482 172.117 258.232 172.417 257.957C172.767 257.657 172.992 257.382 173.092 257.082C173.192 256.782 173.242 256.457 173.242 256.082C173.242 255.632 173.092 255.057 172.817 254.407C172.542 253.732 172.042 253.107 171.367 252.482L172.642 252.832C172.942 252.982 173.217 253.232 173.492 253.532C173.767 253.832 174.017 254.182 174.242 254.557C174.467 254.932 174.617 255.307 174.767 255.707C174.892 256.107 174.967 256.482 174.967 256.832V256.882Z" fill="white"/>
<path d="M174.668 285.833C172.893 287.208 170.893 287.908 168.718 287.908C167.418 287.908 166.143 287.733 164.918 287.383C163.693 287.033 162.768 286.633 162.118 286.133C161.793 285.883 161.518 285.658 161.268 285.408C161.018 285.158 160.768 284.908 160.518 284.633C160.268 284.358 160.043 284.033 159.793 283.658C159.543 283.283 159.268 282.833 158.943 282.308H159.743C160.118 282.833 160.468 283.283 160.818 283.633C161.168 283.983 161.718 284.358 162.493 284.783C163.243 285.183 164.068 285.458 164.943 285.608C165.843 285.758 166.793 285.833 167.793 285.833C168.643 285.833 169.568 285.708 170.543 285.433C171.518 285.158 172.518 284.758 173.518 284.183C175.768 282.883 176.868 281.333 176.868 279.583L176.718 279.308C176.618 279.083 176.393 278.758 176.068 278.333C175.743 277.883 175.343 277.533 174.893 277.283C174.643 277.183 174.543 276.983 174.543 276.733C174.543 276.258 174.818 276.008 175.393 276.008C175.643 276.008 175.818 276.058 175.918 276.158C176.443 276.408 176.893 276.808 177.243 277.358C177.593 277.908 177.768 278.658 177.768 279.608C177.743 282.258 176.718 284.358 174.668 285.833Z" fill="white"/>
<path d="M140.493 273.658C139.568 274.758 138.343 275.308 136.818 275.308C135.868 275.308 134.918 275.008 133.968 274.383C133.018 273.633 132.343 272.633 131.968 271.333C131.593 272.683 130.993 273.683 130.118 274.333C129.268 274.983 128.193 275.283 126.868 275.283C125.343 275.283 124.143 274.808 123.243 273.883C122.343 272.958 121.893 271.633 121.893 269.958C121.893 268.608 122.268 267.558 123.043 266.833C123.668 266.208 124.443 265.908 125.393 265.908C126.318 265.908 127.068 266.108 127.643 266.533C128.218 266.958 128.493 267.633 128.493 268.583C128.493 269.333 128.268 269.908 127.793 270.283C127.318 270.658 126.768 270.858 126.093 270.858L126.018 270.533C126.168 270.458 126.343 270.333 126.468 270.183C126.618 270.033 126.743 269.858 126.868 269.658C126.993 269.483 127.093 269.283 127.193 269.108C127.293 268.933 127.343 268.783 127.368 268.658C127.218 268.258 126.918 267.933 126.518 267.708C126.118 267.483 125.743 267.358 125.368 267.358C124.543 267.358 123.868 267.558 123.343 267.983C122.818 268.408 122.568 268.983 122.568 269.733C122.568 270.133 122.693 270.508 122.918 270.833C123.143 271.158 123.443 271.458 123.793 271.683C124.143 271.908 124.568 272.108 125.043 272.233C125.518 272.358 125.993 272.408 126.468 272.408C127.593 272.408 128.618 272.133 129.543 271.608C130.493 271.033 131.318 270.083 131.993 268.808C132.868 271.208 134.218 272.408 136.043 272.408C137.493 272.408 138.568 272.058 139.293 271.333C139.868 270.758 140.218 269.958 140.343 268.933L140.393 268.008C140.393 265.083 139.468 262.483 137.643 260.158C135.643 257.683 133.218 256.433 130.393 256.433H129.918C130.618 257.208 130.968 258.083 130.968 259.058C130.968 259.808 130.793 260.408 130.418 260.883C130.043 261.358 129.493 261.608 128.743 261.608C127.893 261.608 127.118 261.333 126.418 260.808C125.643 260.183 125.268 259.283 125.268 258.058C125.268 256.983 125.493 256.233 125.918 255.808C126.543 255.283 127.718 255.008 129.493 255.008C132.818 255.008 135.743 256.508 138.268 259.533C140.693 262.433 141.918 265.583 141.918 268.983C141.893 270.983 141.418 272.558 140.493 273.658ZM129.293 257.358C129.043 257.008 128.743 256.833 128.368 256.833C127.743 256.833 127.293 257.008 126.968 257.333C126.643 257.658 126.493 258.108 126.493 258.658C126.493 259.033 126.643 259.383 126.918 259.708C127.193 260.033 127.568 260.183 128.018 260.183C128.443 260.183 128.818 260.008 129.168 259.683C129.493 259.358 129.668 258.983 129.668 258.558C129.643 258.108 129.518 257.708 129.293 257.358Z" fill="#070808"/>
<path d="M150.792 273.108C149.817 274.583 148.367 275.308 146.467 275.308C144.892 275.308 143.992 274.683 143.742 273.458C142.992 272.083 142.567 270.533 142.467 268.808H143.117C143.217 269.258 143.342 269.683 143.492 270.083C143.642 270.458 143.717 270.858 143.742 271.233C144.492 272.058 145.392 272.483 146.467 272.483C147.817 272.483 148.992 271.908 149.992 270.758C151.017 269.583 151.517 268.283 151.517 266.858C151.517 265.608 150.867 264.433 149.592 263.333C148.317 262.208 146.892 261.658 145.342 261.658C144.592 261.583 144.142 261.383 143.992 261.058C143.842 260.733 143.742 260.408 143.742 260.083C143.742 259.833 143.792 259.633 143.867 259.433C143.942 259.233 144.317 259.133 144.992 259.133C147.042 259.133 148.742 260.008 150.117 261.783C151.542 263.533 152.242 265.458 152.242 267.608C152.242 269.908 151.767 271.733 150.792 273.108Z" fill="#070808"/>
<path d="M170.017 273.559C168.417 274.684 166.542 275.234 164.417 275.234C162.167 275.234 160.242 274.634 158.617 273.434C156.992 272.209 156.167 270.784 156.167 269.159C156.167 268.709 156.217 268.334 156.317 268.059C156.417 267.784 156.567 267.409 156.767 266.959H157.217C157.217 268.934 158.042 270.384 159.692 271.309C160.917 272.034 162.492 272.384 164.417 272.384C166.067 272.384 167.567 271.984 168.942 271.184C170.467 270.359 171.217 269.259 171.217 267.859C171.217 267.334 171.067 266.834 170.792 266.384C170.517 265.934 170.142 265.509 169.692 265.134C169.517 265.584 169.242 266.009 168.892 266.384C168.542 266.759 168.117 267.109 167.617 267.434C166.592 268.084 165.542 268.384 164.417 268.384C163.392 268.384 162.567 268.184 161.942 267.809C161.292 267.434 160.992 266.834 160.992 266.059C160.992 264.984 161.417 264.209 162.242 263.734C163.067 263.259 164.067 263.009 165.192 263.009C166.767 263.009 167.892 263.184 168.542 263.534C168.542 263.259 168.517 263.034 168.492 262.809C168.467 262.584 168.392 262.384 168.292 262.159C168.192 261.859 167.892 261.584 167.417 261.309C166.942 261.034 166.442 260.884 165.892 260.884H156.092V258.334H167.217V260.184C168.117 260.534 168.842 261.134 169.342 262.034C169.567 262.409 169.692 262.759 169.792 263.084C169.867 263.409 169.917 263.809 169.917 264.259C170.867 264.909 171.592 265.684 172.067 266.584C172.492 267.334 172.717 268.109 172.717 268.934C172.692 270.784 171.792 272.334 170.017 273.559ZM167.117 263.884C166.617 263.759 166.217 263.709 165.917 263.709C163.592 263.709 162.442 264.259 162.442 265.359C162.442 265.734 162.642 266.034 163.042 266.259C163.442 266.484 163.917 266.609 164.442 266.609C165.392 266.609 166.242 266.384 166.967 265.959C167.692 265.534 168.142 264.984 168.367 264.284C168.042 264.134 167.642 264.009 167.117 263.884Z" fill="#070808"/>
<path d="M173.592 256.184C173.592 256.884 173.442 257.509 173.167 258.109C172.892 258.684 172.517 259.184 172.067 259.609C171.617 260.034 171.092 260.334 170.517 260.559C169.942 260.784 169.342 260.909 168.717 260.909H165.992V258.359H169.092C169.467 258.359 169.817 258.259 170.142 258.034C170.467 257.809 170.767 257.559 171.067 257.284C171.417 256.984 171.642 256.709 171.742 256.409C171.842 256.109 171.892 255.784 171.892 255.409C171.892 254.959 171.742 254.384 171.467 253.734C171.192 253.059 170.692 252.434 170.017 251.809L171.292 252.159C171.592 252.309 171.867 252.559 172.142 252.859C172.417 253.159 172.667 253.509 172.892 253.884C173.117 254.259 173.267 254.634 173.417 255.034C173.542 255.434 173.617 255.809 173.617 256.159V256.184H173.592Z" fill="#070808"/>
<path d="M173.293 285.159C171.518 286.534 169.518 287.234 167.343 287.234C166.043 287.234 164.768 287.059 163.543 286.709C162.318 286.359 161.393 285.959 160.743 285.459C160.418 285.209 160.143 284.984 159.893 284.734C159.643 284.484 159.393 284.234 159.143 283.959C158.893 283.684 158.668 283.359 158.418 282.984C158.168 282.609 157.893 282.159 157.568 281.634H158.368C158.743 282.159 159.093 282.609 159.443 282.959C159.793 283.309 160.343 283.684 161.118 284.109C161.868 284.509 162.693 284.784 163.568 284.934C164.468 285.084 165.418 285.159 166.418 285.159C167.268 285.159 168.193 285.034 169.168 284.759C170.143 284.484 171.143 284.084 172.143 283.509C174.393 282.209 175.493 280.659 175.493 278.909L175.343 278.634C175.243 278.409 175.018 278.084 174.693 277.659C174.368 277.209 173.968 276.859 173.518 276.609C173.268 276.509 173.168 276.309 173.168 276.059C173.168 275.584 173.443 275.334 174.018 275.334C174.268 275.334 174.443 275.384 174.543 275.484C175.068 275.734 175.518 276.134 175.868 276.684C176.218 277.234 176.393 277.984 176.393 278.934C176.368 281.584 175.343 283.659 173.293 285.159Z" fill="#070808"/>
<path opacity="0.75" d="M193.693 226.383H106.018V247.558H193.693V226.383Z" fill="white"/>
<path d="M135.043 246.432H125.518V245.932H126.118C127.068 245.932 127.668 245.632 127.943 245.007C128.043 244.782 128.093 244.207 128.093 243.307V229.757L121.093 246.432H120.768L113.643 229.882V242.732C113.643 243.657 113.668 244.207 113.718 244.382C113.968 245.407 114.843 245.907 116.318 245.907V246.407H110.043V245.907H110.243C111.143 245.907 111.793 245.657 112.168 245.157C112.368 244.907 112.493 244.582 112.593 244.182C112.618 244.107 112.618 243.632 112.618 242.807V231.282C112.618 230.557 112.593 230.107 112.568 229.957C112.468 229.507 112.243 229.157 111.843 228.932C111.543 228.757 111.118 228.682 110.618 228.682H110.043V228.182H117.518L122.643 240.232L127.593 228.182H135.018V228.682H134.418C133.468 228.682 132.868 228.982 132.593 229.607C132.493 229.832 132.443 230.382 132.443 231.282V243.307C132.443 244.057 132.468 244.507 132.493 244.632C132.593 245.107 132.818 245.432 133.218 245.657C133.518 245.832 133.943 245.932 134.443 245.932H135.043V246.432Z" fill="white"/>
<path d="M142.917 246.431H136.117V245.931C136.667 245.906 137.092 245.756 137.367 245.456C137.542 245.256 137.642 244.706 137.642 243.806V236.456C137.642 235.681 137.567 235.181 137.442 234.931C137.242 234.581 136.817 234.381 136.142 234.331V233.831H141.417V243.806C141.417 244.581 141.492 245.081 141.617 245.331C141.817 245.681 142.242 245.881 142.942 245.931V246.431H142.917ZM141.592 229.831C141.592 230.406 141.392 230.881 140.992 231.306C140.592 231.706 140.092 231.906 139.517 231.906C138.942 231.906 138.467 231.706 138.042 231.306C137.642 230.906 137.442 230.406 137.442 229.831C137.442 229.256 137.642 228.756 138.042 228.356C138.442 227.956 138.942 227.756 139.517 227.756C140.092 227.756 140.592 227.956 140.992 228.356C141.392 228.756 141.592 229.256 141.592 229.831Z" fill="white"/>
<path d="M152.119 244.031C151.394 245.756 150.219 246.606 148.569 246.606C147.869 246.606 147.244 246.406 146.669 246.031C146.069 245.631 145.669 245.106 145.494 244.456C145.394 244.131 145.369 243.306 145.369 241.981V235.181H143.719V234.706C145.869 233.181 147.519 231.356 148.694 229.256H149.144V233.856H152.144V235.181H149.144V242.956C149.144 244.006 149.294 244.656 149.594 244.881C149.769 245.006 149.919 245.081 150.069 245.081C150.644 245.081 151.194 244.631 151.719 243.756L152.119 244.031Z" fill="white"/>
<path d="M166.944 246.43H160.569V245.93C161.019 245.88 161.369 245.68 161.569 245.38C161.719 245.155 161.819 244.58 161.819 243.68V238.08C161.819 237.28 161.819 236.83 161.794 236.705C161.719 236.13 161.569 235.73 161.294 235.505C161.094 235.355 160.869 235.28 160.644 235.28C159.919 235.28 159.194 235.83 158.494 236.955V243.705C158.494 244.605 158.569 245.155 158.694 245.38C158.869 245.68 159.219 245.88 159.744 245.955V246.455H153.344V245.955C153.869 245.905 154.244 245.73 154.469 245.455C154.619 245.255 154.694 244.68 154.694 243.73V230.955C154.694 230.155 154.644 229.63 154.569 229.43C154.394 229.055 153.994 228.805 153.344 228.73V228.23H158.469V235.53C159.744 234.205 160.969 233.53 162.169 233.53C162.894 233.53 163.544 233.73 164.119 234.155C164.694 234.58 165.094 235.105 165.319 235.78C165.494 236.38 165.594 237.405 165.594 238.855V243.755C165.594 244.555 165.644 245.08 165.719 245.28C165.894 245.68 166.294 245.93 166.944 246.005V246.43Z" fill="white"/>
<path d="M179.568 235.255C179.568 235.755 179.443 236.205 179.218 236.555C178.943 236.955 178.568 237.155 178.068 237.155C177.643 237.155 177.318 237.055 177.043 236.83C176.768 236.605 176.493 236.405 176.218 236.18C176.118 236.13 176.018 236.105 175.918 236.105C175.668 236.105 175.418 236.205 175.168 236.405C174.793 236.73 174.518 237.155 174.343 237.705C174.043 238.58 173.918 239.53 173.918 240.58L173.943 244.23C173.943 244.78 173.993 245.105 174.043 245.205C174.243 245.655 174.768 245.905 175.593 245.955V246.455H168.768V245.955C169.443 245.905 169.868 245.63 170.043 245.155C170.118 244.93 170.168 244.355 170.168 243.48V236.53C170.168 235.805 170.143 235.355 170.068 235.155C169.918 234.705 169.468 234.43 168.768 234.355V233.855H173.918V236.705C175.293 234.555 176.643 233.48 177.943 233.48C179.018 233.48 179.568 234.055 179.568 235.255Z" fill="white"/>
<path d="M193.319 244.705C192.469 245.98 191.444 246.605 190.294 246.605C188.869 246.605 188.044 245.93 187.869 244.58C186.344 245.93 184.944 246.605 183.744 246.605C183.019 246.605 182.419 246.38 181.944 245.905C181.469 245.43 181.219 244.855 181.219 244.13C181.219 242.855 182.069 241.68 183.744 240.555C184.369 240.13 185.744 239.43 187.869 238.48V237.205C187.869 236.455 187.844 236.005 187.819 235.83C187.719 235.33 187.494 234.98 187.119 234.73C186.819 234.555 186.519 234.455 186.144 234.455C185.569 234.455 185.069 234.58 184.694 234.855C184.469 235.005 184.344 235.205 184.344 235.43C184.344 235.63 184.469 235.855 184.719 236.13C185.069 236.505 185.244 236.88 185.244 237.255C185.244 237.73 185.069 238.13 184.719 238.405C184.369 238.705 183.944 238.855 183.469 238.855C182.944 238.855 182.494 238.705 182.119 238.405C181.694 238.08 181.494 237.655 181.494 237.155C181.494 236.405 181.819 235.73 182.444 235.13C182.969 234.63 183.619 234.23 184.419 233.955C185.344 233.63 186.294 233.48 187.269 233.48C188.194 233.48 189.019 233.68 189.769 234.055C190.619 234.48 191.194 235.105 191.469 235.905C191.594 236.28 191.669 237.13 191.669 238.505V243.38C191.669 244.18 191.769 244.655 191.944 244.805C192.044 244.88 192.144 244.905 192.244 244.905C192.469 244.905 192.719 244.755 192.969 244.43L193.319 244.705ZM187.869 243.605V239.38C185.894 240.53 184.919 241.705 184.919 242.905C184.919 243.33 185.069 243.68 185.369 244.005C185.594 244.255 185.919 244.38 186.319 244.38C186.744 244.355 187.269 244.105 187.869 243.605Z" fill="white"/>
<path d="M133.768 246.132H124.243V245.632H124.843C125.793 245.632 126.393 245.332 126.668 244.707C126.768 244.482 126.818 243.907 126.818 243.007V229.457L119.818 246.132H119.493L112.368 229.582V242.432C112.368 243.357 112.393 243.907 112.443 244.082C112.693 245.107 113.568 245.607 115.043 245.607V246.107H108.768V245.607H108.968C109.868 245.607 110.518 245.357 110.893 244.857C111.093 244.607 111.218 244.282 111.318 243.882C111.343 243.807 111.343 243.332 111.343 242.507V230.957C111.343 230.232 111.318 229.782 111.293 229.632C111.193 229.182 110.968 228.832 110.568 228.607C110.268 228.432 109.843 228.357 109.343 228.357H108.768V227.857H116.243L121.368 239.907L126.318 227.857H133.743V228.357H133.143C132.193 228.357 131.593 228.657 131.318 229.282C131.218 229.507 131.168 230.057 131.168 230.957V242.982C131.168 243.732 131.193 244.182 131.218 244.307C131.318 244.782 131.543 245.107 131.943 245.332C132.243 245.507 132.668 245.607 133.168 245.607H133.768V246.132Z" fill="black"/>
<path d="M141.642 246.132H134.842V245.632C135.392 245.607 135.817 245.457 136.092 245.157C136.267 244.957 136.367 244.407 136.367 243.507V236.157C136.367 235.382 136.292 234.882 136.167 234.632C135.967 234.282 135.542 234.082 134.867 234.032V233.532H140.142V243.507C140.142 244.282 140.217 244.782 140.342 245.032C140.542 245.382 140.967 245.582 141.667 245.632V246.132H141.642ZM140.317 229.532C140.317 230.107 140.117 230.582 139.717 231.007C139.317 231.407 138.817 231.607 138.242 231.607C137.667 231.607 137.192 231.407 136.767 231.007C136.367 230.607 136.167 230.107 136.167 229.532C136.167 228.957 136.367 228.457 136.767 228.057C137.167 227.657 137.667 227.457 138.242 227.457C138.817 227.457 139.317 227.657 139.717 228.057C140.117 228.457 140.317 228.932 140.317 229.532Z" fill="black"/>
<path d="M150.843 243.707C150.118 245.432 148.943 246.282 147.293 246.282C146.593 246.282 145.968 246.082 145.393 245.707C144.793 245.307 144.393 244.782 144.218 244.132C144.118 243.807 144.093 242.982 144.093 241.657V234.857H142.443V234.382C144.593 232.857 146.243 231.032 147.418 228.932H147.868V233.532H150.868V234.857H147.868V242.632C147.868 243.682 148.018 244.332 148.318 244.557C148.493 244.682 148.643 244.757 148.793 244.757C149.368 244.757 149.918 244.307 150.443 243.432L150.843 243.707Z" fill="black"/>
<path d="M165.667 246.132H159.292V245.632C159.742 245.582 160.092 245.382 160.292 245.082C160.442 244.857 160.542 244.282 160.542 243.382V237.782C160.542 236.982 160.542 236.532 160.517 236.407C160.442 235.832 160.292 235.432 160.017 235.207C159.817 235.057 159.592 234.982 159.367 234.982C158.642 234.982 157.917 235.532 157.217 236.657V243.407C157.217 244.307 157.292 244.857 157.417 245.082C157.592 245.382 157.942 245.582 158.467 245.657V246.157H152.092V245.657C152.617 245.607 152.992 245.432 153.217 245.157C153.367 244.957 153.442 244.382 153.442 243.432V230.657C153.442 229.857 153.392 229.332 153.317 229.132C153.142 228.757 152.742 228.507 152.092 228.432V227.932H157.217V235.232C158.492 233.907 159.717 233.232 160.917 233.232C161.642 233.232 162.292 233.432 162.867 233.857C163.442 234.282 163.842 234.807 164.067 235.482C164.242 236.082 164.342 237.107 164.342 238.557V243.457C164.342 244.257 164.392 244.782 164.467 244.982C164.642 245.382 165.042 245.632 165.692 245.707V246.132H165.667Z" fill="black"/>
<path d="M178.292 234.931C178.292 235.431 178.167 235.881 177.942 236.231C177.667 236.631 177.292 236.831 176.792 236.831C176.367 236.831 176.042 236.731 175.767 236.506C175.492 236.281 175.217 236.081 174.942 235.856C174.842 235.806 174.742 235.781 174.642 235.781C174.392 235.781 174.142 235.881 173.892 236.081C173.517 236.406 173.242 236.831 173.067 237.381C172.767 238.256 172.642 239.206 172.642 240.256L172.667 243.906C172.667 244.456 172.717 244.781 172.767 244.881C172.967 245.331 173.492 245.581 174.317 245.631V246.131H167.492V245.631C168.167 245.581 168.592 245.306 168.767 244.831C168.842 244.606 168.892 244.031 168.892 243.156V236.206C168.892 235.481 168.867 235.031 168.792 234.831C168.642 234.381 168.192 234.106 167.492 234.031V233.531H172.642V236.381C174.017 234.231 175.367 233.156 176.667 233.156C177.742 233.156 178.292 233.756 178.292 234.931Z" fill="black"/>
<path d="M192.043 244.407C191.193 245.682 190.168 246.307 189.018 246.307C187.593 246.307 186.768 245.632 186.593 244.282C185.068 245.632 183.668 246.307 182.468 246.307C181.743 246.307 181.143 246.082 180.668 245.607C180.193 245.132 179.943 244.557 179.943 243.832C179.943 242.557 180.793 241.382 182.468 240.257C183.093 239.832 184.468 239.132 186.593 238.182V236.907C186.593 236.157 186.568 235.707 186.543 235.532C186.443 235.032 186.218 234.682 185.843 234.432C185.543 234.257 185.243 234.157 184.868 234.157C184.293 234.157 183.793 234.282 183.418 234.557C183.193 234.707 183.068 234.907 183.068 235.132C183.068 235.332 183.193 235.557 183.443 235.832C183.793 236.207 183.968 236.582 183.968 236.957C183.968 237.432 183.793 237.832 183.443 238.107C183.093 238.407 182.668 238.557 182.193 238.557C181.668 238.557 181.218 238.407 180.843 238.107C180.418 237.782 180.218 237.357 180.218 236.857C180.218 236.107 180.543 235.432 181.168 234.832C181.693 234.332 182.343 233.932 183.143 233.657C184.068 233.332 185.018 233.182 185.993 233.182C186.918 233.182 187.743 233.382 188.493 233.757C189.343 234.182 189.918 234.807 190.193 235.607C190.318 235.982 190.393 236.832 190.393 238.207V243.032C190.393 243.832 190.493 244.307 190.668 244.457C190.768 244.532 190.868 244.557 190.968 244.557C191.193 244.557 191.443 244.407 191.693 244.082L192.043 244.407ZM186.568 243.307V239.082C184.593 240.232 183.618 241.407 183.618 242.607C183.618 243.032 183.768 243.382 184.068 243.707C184.293 243.957 184.618 244.082 185.018 244.082C185.468 244.057 185.993 243.807 186.568 243.307Z" fill="black"/>
</g>
<defs>
<linearGradient id="paint0_linear_625_814" x1="110.163" y1="145.179" x2="150.219" y2="248.607" gradientUnits="userSpaceOnUse">
<stop stop-color="#D4509D"/>
<stop offset="0.1933" stop-color="#D4509D"/>
<stop offset="0.2798" stop-color="#CD4F9D"/>
<stop offset="0.4285" stop-color="#B94C9C"/>
<stop offset="0.6214" stop-color="#99489C"/>
<stop offset="0.8486" stop-color="#6D449B"/>
<stop offset="1" stop-color="#48429A"/>
</linearGradient>
<linearGradient id="paint1_linear_625_814" x1="201.795" y1="113.445" x2="119.434" y2="293.744" gradientUnits="userSpaceOnUse">
<stop stop-color="#51C4CC"/>
<stop offset="0.0538942" stop-color="#52B9C7"/>
<stop offset="0.3166" stop-color="#4D8DB7"/>
<stop offset="0.5519" stop-color="#4A6DAA"/>
<stop offset="0.7513" stop-color="#4957A1"/>
<stop offset="0.907" stop-color="#48479C"/>
<stop offset="1" stop-color="#48429A"/>
</linearGradient>
<linearGradient id="paint2_linear_625_814" x1="126.722" y1="74.4126" x2="95.7045" y2="119.904" gradientUnits="userSpaceOnUse">
<stop offset="0.1487" stop-color="#D5EEF6"/>
<stop offset="0.2439" stop-color="#B9E1F2"/>
<stop offset="0.4082" stop-color="#8CD0EE"/>
<stop offset="0.5696" stop-color="#66C4EA"/>
<stop offset="0.7248" stop-color="#42BCE8"/>
<stop offset="0.8713" stop-color="#1DB7E7"/>
<stop offset="1" stop-color="#00B6E7"/>
</linearGradient>
<linearGradient id="paint3_linear_625_814" x1="145.293" y1="39.4245" x2="117.395" y2="70.3727" gradientUnits="userSpaceOnUse">
<stop offset="0.109" stop-color="#D5EEF6"/>
<stop offset="0.2799" stop-color="#B3DFF2"/>
<stop offset="0.6176" stop-color="#71C7EB"/>
<stop offset="0.8674" stop-color="#38BAE8"/>
<stop offset="1" stop-color="#00B6E7"/>
</linearGradient>
<linearGradient id="paint4_linear_625_814" x1="154.741" y1="39.3385" x2="182.732" y2="70.3902" gradientUnits="userSpaceOnUse">
<stop offset="0.109" stop-color="#D5EEF6"/>
<stop offset="0.2799" stop-color="#B3DFF2"/>
<stop offset="0.6176" stop-color="#71C7EB"/>
<stop offset="0.8674" stop-color="#38BAE8"/>
<stop offset="1" stop-color="#00B6E7"/>
</linearGradient>
<linearGradient id="paint5_linear_625_814" x1="173.356" y1="74.4554" x2="204.374" y2="119.947" gradientUnits="userSpaceOnUse">
<stop offset="0.1487" stop-color="#D5EEF6"/>
<stop offset="0.2439" stop-color="#B9E1F2"/>
<stop offset="0.4082" stop-color="#8CD0EE"/>
<stop offset="0.5696" stop-color="#66C4EA"/>
<stop offset="0.7248" stop-color="#42BCE8"/>
<stop offset="0.8713" stop-color="#1DB7E7"/>
<stop offset="1" stop-color="#00B6E7"/>
</linearGradient>
<linearGradient id="paint6_linear_625_814" x1="53.3039" y1="55.3301" x2="141.289" y2="200.867" gradientUnits="userSpaceOnUse">
<stop stop-color="#92278F"/>
<stop offset="1" stop-color="#EC008C"/>
</linearGradient>
<linearGradient id="paint7_linear_625_814" x1="224.316" y1="102.49" x2="155.297" y2="191.917" gradientUnits="userSpaceOnUse">
<stop stop-color="#EC008C"/>
<stop offset="1" stop-color="#92278F"/>
</linearGradient>
<clipPath id="clip0_625_814">
<rect width="300" height="300" fill="white" transform="translate(0.0917969 0.283203)"/>
</clipPath>
</defs>
</svg>
